<?xml version="1.0" encoding="UTF-8"?>
<svg xmlns="http://www.w3.org/2000/svg" version="1.1" viewBox="0 0 866.1 535">
  <!-- Generator: Adobe Illustrator 29.5.0, SVG Export Plug-In . SVG Version: 2.1.0 Build 137)  -->
  <defs>
    <style>
      .st0 {
        fill: #344500;
        stroke: #110101;
        stroke-miterlimit: 10;
      }
    </style>
  </defs>
  <g id="b">
    <g id="c">
      <path d="M116.1,535c-2.8-3-4.2-5.8-2.4-10,36.9-41.9,75-82.3,113-123,18.6-20,37.3-42.5,56.5-61.5,8.8-8.7,16.2-11.8,27.9-4.9,14.5,8.6,33.2,22.5,47.4,32.6,21,14.8,24.3,25.5,53.2,24.8,23.2-.6,46.8-.9,70-2,15.5-.7,19-.8,31.4-9.6,13.8-9.8,26.2-22.2,39.6-32.4,2.2-1.7,11.9-8.8,13.5-9.5,2.7-1.1,10.1.7,13,2,3.1,1.4,6.5,5.5,9,8,32.3,32.9,62.5,69.5,92.5,104.5,18.6,21.8,35.8,44.7,55.6,65.5,2.5,3.3-2.2,9.9-5.6,10.5-5.9,1-4.7-2.2-7-5-30.7-37.1-61.2-74.9-92.9-111.1-14.4-16.4-34.3-40.5-49.9-54.6-11.2-10.1-11.9-4.1-20.7,2.1-14.8,10.4-29.6,20.5-44.4,31.6-4.8,3.6-6.4,8.1-13.5,9.5-38,.9-76.4,4.2-114.3,2.2-6.9-1.5-14.4-11.1-19.8-15.2-13.2-9.9-29-18-42.2-27.6-8.9-6.4-14.9-17.4-27.3-17-4,.1-3.4,2.6-5.5,4.5-21.6,18.4-41.1,40.7-60.4,61.5-32.9,35.4-65.1,71.5-97.4,107.6-5.4,6.1-8.3,12.6-16,16.5h-3Z"/>
      <path d="M727.7,115.6c-15.9,12.4-33.1,23.4-48.4,36.6-2.3,5-4.2,14.2,2.9,15.6,45.5-26,91.2-51.6,137.1-77.1,2.8-1.6,5.5-3.1,8.4-4.6,4.6-2.6,19.8-12.4,23.6-12,11,1.3,18.3,20.5,12.6,30.2-2.9,4.9-22.2,15.3-28.2,18.8-46.3,27.2-93.7,53-140.3,79.7-3.5,2-14.4,6.1-15.8,9.2-1.2,2.5-.1,12.7,3,13,3.5.4,25.5-9.2,30.9-11.1,22.6-7.7,45-15.7,67.6-23.4,23.1-7.9,46.5-15,69.5-23.5,6.9,0,14.8,13.5,15.4,19.5,1.3,12.9-14.8,18.2-24.7,22.2-52.5,21.3-108.9,37.2-162,57-13.8,5.1-32.6,13.7-16.3,28.7,55.1,50.6,117.5,96.5,172,148,2.2,2,12.8,12,13.5,13.5.8,1.8,1.3,6-1.1,6.8-2.1.1-4.8.5-6.8.1-2.9-.6-16.1-14.5-19.5-17.5-48.2-42.1-97.5-83.3-146.5-124.5-8-6.7-22.5-16.1-29-23-6.1-6.5-2.3-12,1.3-18.7,5.9-10.7,10.4-14.5,21.5-19.5l184.5-68c1.2-6.2-.9-11.9-8.1-10.6-55.9,19.9-112.2,39-167.5,60.6-10.3-.3-6.7-10.8-10.2-17.4,1.3-5.7-1.3-15,1.2-19.7,1.6-3.1,20-13,24.5-15.6,47.6-26.9,97.6-51,144-79.9,3-1.9,22.9-14.9,16.7-19.3-6.8-4.9-22.3,5.6-28.7,9.1-49.5,27.3-98.5,58.4-148.7,85.5-5.8,2.6-7.5-3.9-8.6-8.5-2-9-1.8-19.1-5.5-28,5.2,0,7-4.4,10.7-6.8,30.8-20.6,59.1-44.7,88.4-67.6,18.7-14.6,42.1-29.2,59.4-44.6,3.9-3.5,11.5-11.2,4.9-15.9-1-.7-4.5-2-5.7-1.9-3.4.5-15.2,10.4-18.7,13.2-25.1,20.1-50.6,41-77,60.1-17.6,12.7-34.9,29.8-55,43-3.9,2.6-7.8,5.6-11.6,8.4-2.2-4.6-4.7-9.2-7.5-13.5-19.7-30.5-45.1-37.4-80.5-35.5-34.1,1.9-52.5,9.3-69.7,39.3-14.7,25.7-27.8,56.8-40.1,83.9-1.2,2.8-4.8,4.6-3.8,8.7,6.9-1.9,14.1-1.3,21.4-2.1,6.3-.7,8.4-3.8,15.3,0,7.4,4,7.8,11.6,4.1,18.5-1.8,3.3-7.6,6-5.2,10.7,2.5,4.9,19,4.1,25.4,6.6,13.4,5.1,14.7,19.9,3.5,28.4-7.9,6-20.9,6.1-30.5,8-.8.7,7.4,18.1,8.5,20,3.9,7.2,5.3,9.8,14.1,10.9s46.8-5.8,57.2-8.6c51.9-13.6,72.6-67.4,71.2-116.8-1.7-61.6-50-94-107-67-6,2.9-17.5,11.6-13.1,19.1,5.3,2.4,9.4-1.6,13.8-2.3,16.8-2.9,36.8-4.4,49.7,8.9,7.6,7.9,7.7,15.8,2.4,25.2-3.1,5.5-7.8,8.4-13.5,10.4-37.2,13.1-76.9,5.2-67-42.9,4.2-20.6,26.7-32,45.7-36.3,112.6-25.2,124,125.5,64.7,187.2-2.9,3-14.4,10.9-15.7,13-1,1.7-1.3,4.7-.8,6.6.4,1.4,10,12.4,11.8,14.3,9.6,10,19.4,20,29,30,46,47.9,94.8,93.6,138.8,143.2l.2,5.3h-5l1,3c-1.6.4-2.3-.3-3.5-1-5.4-2.9-16.4-17.4-21.5-22.5-51.5-52.5-104.2-103.9-156.1-155.9-1.7-1.7-8.1-10.2-8.7-10.6-5.1-3-27.1,3.6-34.1,4.8-9.1,1.6-27.9,6-35.8,6.2-23.5.5-36-30.8-38-50,3.7-6.2,11.5-4.6,17.8-6.2,4.2-1.1,13.7-3.4,17.1-4.9,3.8-1.6,4.5-4.9,1.2-7.8-6-5.2-31,1.3-37-7-7.6-10.5,9.4-18.6,7.5-29-3.2-3.3-42.7,12.3-39.8-12.2,1.6-13.2,22.5-48.4,29.5-62.6,17.6-35.4,31.4-70.9,76.9-77.1,34.6-4.8,74-1.4,99,25.3,5.3,5.6,7.7,14.7,17.7,12.4L809.8,4.2c16.1-13,37.1,7.4,25.3,24.3-6.6,9.4-31.2,25.3-41.5,33.5-22,17.7-43.8,36.3-65.9,53.6h0ZM549.1,182c6.7,1.4,27.6-4.9,28.8-11.7.1-.7-.2-7.9-.4-8.3-2.2-3.8-12.8-6.1-16.9-7.1-3.3-.8-6.3-3.6-10.7-1.5-3.4,5.1,1.1,11.7,1,16,0,3.6-3.1,8.3-1.9,12.6h0ZM539.1,156.9c-8-.8-14.9,1.6-21.8,5.2-3.3,12,9.5,19.7,19.9,18.4l1.9-23.6h0Z"/>
      <path d="M374.5,112.5c14.6,22,35.1,62.5,45.4,87.1,3.1,7.5,7,14.6,1.4,22.1-5,6.9-9.9,6.6-17.8,6.2-4.5-.2-20-5.2-19.4,2.5.5,6.7,13.6,6.1,11.5,20.6-2.5,17.1-22.2,9.2-35,11-3.3.5-7.6,2-5.1,5.9,2.8,4.5,34.3,6.3,37,12,3,6.3-5.5,24-9,30-14.8,25.4-43.3,14-67.2,11.1-11.5-1.4-30-4.4-40.6-.8-10.4,3.6-23.9,23.4-32.2,32.3-50.4,53.6-101.2,107.9-152,161-1.5,1.5-8.3,7.7-10,7.2l-5.7-7.5c0-1.9,2-4.6,3.4-6,10.3-11.4,21.4-22.7,31.6-33.9,39-42.3,79.8-83.5,119.5-124.5,9.2-9.5,30.5-34.5,40.8-39.2,2.6-1.2,6.4-2.5,9.2-2.8,19.5-2.2,42.5,5.1,62,6,6.4.3,24.2.8,28.6-3.5,2.1-2.1,3.5-6.9,5-9.8.4-.8,2-.8,2.5-2.6,3.3-12.1-11.2-11.9-19-14.2-4.4-1.3-8.6-3.5-13.3-4.2-3.1-7.1-5.9-15-2.5-22.5,5.8-12.8,32-4.6,35.1-8.4s-5.4-8.4-7.3-11c-4.5-5.9-7-13.8-.5-19.4,11.3-9.8,28.9,1.3,41.5-2.5,2.3-3.1-4.5-11-6-14.2-4.7-10.1-9.5-19.6-14.5-29.5-23.8-47.7-32.1-83.2-95.6-83.4-25.7-.1-53.9,5.1-73,23.1-5.4,5.1-12.9,17.9-20.9,17-1.2-.1-7.9-2.3-9.2-2.9-1.8-.8-2.3-2.6-3.1-3-37.8-21.2-75.2-43.3-112.8-65-9.2-5.3-19-16.3-30.2-11.8-2.6,3.7-.6,7,2.4,9.6,38.2,23.4,76.8,46,115.7,68.3,9.1,5.2,23.4,11,31.2,16.8,1.6,1.2,7.2,6.9,7.3,8.7-7.1,9.6-6.8,20-7.8,31.3-13.9.4-26.2-5.4-38.7-10.8-35.5-15.4-71-34.1-106.8-49.2-4.9-2.1-21.9-9.4-25.9-9-4.4.4-8.2,4.7-6.1,9,1.4,2.9,25.4,13.8,30,16,41,19.1,83,36.8,124.5,54.5,3,1.3,7.2,1.5,10.7,3.3,4.3,2.2,7.9,7.6,13.2,7.2-.4,7.6.7,15.9,0,23.5-1.1,14.3-4.1,12.9-16.2,10.2-34.4-7.8-70.2-20.2-104.6-29.4-14.8-4-40.9-12.9-54.8-14.2-2-.2-6.8-.8-7.9.8-.6,2-1.1,6.5,0,8.1.6.9,18.5,6.8,21.3,7.7,28.7,8.9,58.5,15.4,87.4,23.6,24,6.8,55,13.6,77.5,22.5,1.5.6,10.5,4.9,11,5.5.3.4,5.1,6.9,5.7,7.8,7.3,11.2,10.3,18.8.1,28.9-41.3,41-85.2,79.7-127,119.9-22.8,21.9-44.4,45.2-68.2,65.9-4.1-.6-7-2.5-6.1-7.2,1-5.1,19.4-21.9,24.3-26.8,44.1-44.2,90.8-87.7,137.5-129.5,9.1-8.1,19.3-15.4,28-24,2.8-2.7,5.7-4.9,6.1-9,.4-6-9.5-19.3-14.7-22.3-6.7-3.9-23.1-5.1-31.8-7.2-43.9-10.7-88-24.1-131.6-36.4-7.7-2.2-15-2.3-22.7-6.3C6,210.9.2,204.6,0,199.4c-.3-7.8,6.2-20.8,15.4-20.2,8.1.5,22.1,4.3,30.7,6.1,17.6,3.9,35.5,8.6,53,13,18,4.6,67.7,21.9,82.5,20.5,7.8-.7,4.8-7.7.4-10.4-16.4-10.5-47.1-19.9-66.3-28.7-22.6-10.4-45.8-21.6-68.5-32.5-8.9-4.3-32.8-13-37.7-20.3-7.6-11.5,1.6-29,14.7-29.8,8.9,4.9,18.4,9.4,27.7,13.3,34.8,14.5,69.4,28.7,104.2,43.8,9.5,4.1,18.4,9.7,28.4,12.7,2.9,0,4.8-8.9,4.2-11.2-.8-3.2-5.7-6.9-8.3-8.7-19.7-14-47.1-28.2-68.3-40.9-8-4.8-16.2-9.6-24.3-14.5-12.3-7.6-47.1-25.1-52.5-36.5-6.5-13.9,3.6-17.6,10.5-27.6,2.3-1.5,15.8,5.5,18.9,7.2,20.9,11.2,41.8,25.6,62.4,37.6,23.2,13.5,46.8,26.4,70,40,4.4,1.5,9,1,13-1.3,3.2-1.9,4-4.9,6.2-6.8,16-14.1,30.4-22.8,52.1-25.9,40.8-5.8,81.6-1.9,105.9,34.5h0Z"/>
      <path d="M230.8,322.6c-40.7,38.7-81.3,78.5-121.2,118.3-17,16.9-36.3,40.3-53.9,55.1-1.6,1.4-3.3,2.8-5.2,3.8-14.7-7.6-1.9-13.3,4.2-19.7,55.1-57.6,112.6-114.4,170.9-169.1,4.2-4,18.6-13.7,18.4-19.2-.2-4.4-3.9-12-6.8-15.3-26.6-29.6-35.8-87.5-19.2-124.2,23.5-51.7,112.6-64.5,143.5-15.2,3.1,5,12.7,25.3,12.7,30.4,0,3-2.6,7.5-6.1,6-4.3-1.8-13.1-23.6-16.2-28.9-16.4-27.6-51.8-29.8-80.1-23.5-66.5,15-57,112.6-22.7,154.3,3.6,4.4,11.9,7.9,11.7,15.2-.1,6-16.5,17.8-21.3,22.3-3.2,3-6,7-8.8,9.7h0Z"/>
      <path d="M800.7,461.4c3.9,3.6,25.5,22.5,26.3,25.3,1.2,4.1-4.8,7.3-8,6.8-4.2-.7-18.6-16.2-22.9-20-51.3-45.4-102.2-90.9-152-138-4.1-3.9-18.8-14.4-19.8-19.2-.8-4.1,6.9-13.8,11.3-8.2,54.6,51.8,109.9,102.4,165.1,153.4h0Z"/>
      <path d="M334.8,152.3c6.7,5.9,4.3,17.7-.7,23.9-1.1,1.4-12,9.1-14.1,10.1-18.7,8.8-60.3,1.3-63.8-23-1.1-7.7.9-5.1,2.9-7.9,3-4.1,2.5-5.5,7.5-8.6,17.4-10.9,52.6-8.4,68.2,5.3h0ZM294.1,151.9c-32-1.5-33.4,20.3-2,23-3.2-9.1,1.6-14.6,2-23ZM304.7,153.1c-1.7.6-1.5,1.9-1.7,3.3-.2,1.9.8,16.3,1.2,17.9,2.7,9.2,28.5-4.6,18.3-15.3-2.6-2.7-14.4-7-17.9-5.9h0Z"/>
    </g>
  </g>
  <g id="Capa_2">
    <g id="c1" data-name="c">
      <path class="st0" d="M351.4,81.8c-.2,0-.2,0-.3-.2,0,0-.1-.2-.4-.9-.2-.6-.4-1-.5-1.3l-17.5-48.7c-1.3-3.3-2.1-5.6-2.7-6.9-.6-1.2-1.6-2.3-2.9-3.3-.8-.5-1.5-.9-2.3-1.2-.7-.3-1.2-.6-1.6-.8-.2-.1-.3-.2-.4-.4h0c0,0,0-.1,0-.1,0,0,0,0,0-.1,0,0,0,0,.2,0h15.7c.2,0,.4,0,.6.2.2.2.3.4.4.5,0,.2-.2.5-.3.6-.3.3-.7.6-1,.9-.5.4-.8.8-1,1.4-.2.4-.2.8-.2,1.2s.1,1,.4,1.6l20.1,51.4,21.6-44.2c.4-.9.7-1.7.7-2.4s-.2-1.2-.5-1.8c-.6-.9-1.5-2.2-2.8-3.7l-1.9-2.2,5.3-4c.2-.2.3-.2.5-.2s.4.1.7.4l3.8,3.9c.7.7,1.1,1.6,1.1,2.7s-.1,1.3-.3,2c-.7,2.2-1.8,4.7-3.3,7.7l-22.7,47.1c-.2.5-.4.8-.6,1.1-.1,0-.3.1-.4.1h-7,0Z"/>
      <path class="st0" d="M380.1,17.4s.1,0,.3.2l3.8,3.9c.6.7.9,1.4.9,2.4s-.1,1.2-.3,1.9c-.7,2.1-1.8,4.7-3.2,7.6l-22.7,47.1h0s0,0,0,0c-.2.4-.3.7-.4.8,0,0,0,0,0,0h-7c0,0-.1-.3-.3-.8-.2-.6-.4-1-.5-1.3l-17.5-48.7c-1.3-3.3-2.1-5.6-2.7-6.9-.6-1.3-1.7-2.5-3-3.5h0s0,0,0,0c-.8-.5-1.5-.9-2.3-1.2-.5-.2-.9-.4-1.2-.6h14.8c0,0,.1,0,.2,0,0,0,.1.1.2.2,0,0,0,0-.1.1-.3.3-.6.6-1,.9-.5.4-.9,1-1.1,1.6-.2.4-.3.9-.3,1.3s.1,1.2.4,1.7l19.7,50.3.8,2.1,1-2,21.1-43.1c.5-.9.7-1.8.7-2.6s-.2-1.4-.6-2c-.6-1-1.5-2.2-2.8-3.7l-1.6-1.8,4.9-3.7h0s0,0,0,0c0,0,0,0,.1,0M380.2,16.4c-.3,0-.5.1-.8.3l-5.8,4.4,2.3,2.6c1.2,1.5,2.2,2.7,2.7,3.6.3.4.4.9.4,1.5s-.2,1.4-.6,2.2l-21.1,43.1-19.7-50.4c-.2-.5-.3-.9-.3-1.3s0-.7.2-1c.2-.5.5-.9.9-1.2.4-.3.7-.6,1-.9.3-.3.5-.6.5-.9s0-.1,0-.2c0-.2-.3-.5-.6-.7-.3-.2-.6-.3-.8-.3h-15.7c-.2,0-.4,0-.6.3,0,0,0,.2,0,.3,0,.2,0,.3.1.4,0,.3.3.5.6.6.4.3,1,.6,1.7.9.7.3,1.4.7,2.2,1.1,1.3.9,2.2,2,2.7,3.1.6,1.3,1.5,3.6,2.7,6.9l17.5,48.7c0,.3.2.7.5,1.3.2.6.4,1,.5,1.1.2.2.4.4.7.4h7c.2,0,.5,0,.7-.3.2-.3.4-.7.7-1.2l22.7-47.1c1.4-3,2.6-5.6,3.3-7.8.2-.8.4-1.5.4-2.2,0-1.2-.4-2.2-1.2-3.1l-3.8-3.9c-.4-.3-.7-.5-1-.5h0Z"/>
      <path class="st0" d="M407,82.7c-4.3,0-8.1-1.6-11.3-4.8-3.3-3.3-4.9-7.3-4.9-11.8h0c0-5.1,1.9-9.3,5.6-12.7.4-.4,1-.7,1.8-1,.9-.3,2.2-.8,3.9-1.4,1-.4,2.2-.8,3.4-1.2,1.1-.4,2-.6,2.7-.6h.1c4.4.2,8.2,1.9,11.2,5.1,3.1,3.2,4.6,7.2,4.7,11.6v.2c0,4.5-1.6,8.4-4.8,11.5-3.3,3.2-7.3,4.9-12,5h-.6,0ZM407.3,50.6c-2.9,0-5.4,1.4-7.5,4.2-2.1,2.9-3.2,6.5-3.2,10.7s1.1,7.9,3.2,11c2.1,3.1,4.8,4.8,7.9,5h.5c2.9,0,5.4-1.4,7.4-4.2,2.1-2.9,3.2-6.4,3.2-10.6s-1.1-7.9-3.2-11c-2.1-3.1-4.8-4.8-7.8-5h-.4,0Z"/>
      <path class="st0" d="M408.4,49.7c4.3.2,7.9,1.8,10.9,5,3,3.1,4.5,6.9,4.6,11.3v.2c0,4.5-1.5,8.1-4.6,11.2-3.2,3.1-7.1,4.7-11.6,4.8h-.6c-4.3,0-7.8-1.5-10.9-4.7-3.2-3.3-4.8-7-4.8-11.4h0c0-5,1.8-9,5.5-12.3.3-.3.9-.6,1.6-.9.9-.3,2.1-.8,3.9-1.4,0,0,.2,0,.2,0-1.2.7-2.2,1.7-3.2,3-2.2,3-3.3,6.7-3.3,11s1.1,8.1,3.2,11.2c2.2,3.3,5,5,8.2,5.2h.5c3,0,5.7-1.5,7.8-4.4,2.2-3,3.3-6.6,3.3-10.9s-1.1-8.1-3.3-11.2c-2.2-3.3-5-5-8.2-5.2h-.5c-.4,0-.8,0-1.2,0,.9-.3,1.6-.4,2.2-.4h0M408.4,48.7h-.1c-.8,0-1.7.2-2.9.6-1.2.5-2.4.9-3.4,1.2-1.7.6-3,1.1-3.9,1.4-.9.3-1.5.7-2,1.1-3.8,3.5-5.8,7.8-5.8,12.9h0c0,4.8,1.7,8.8,5.1,12.2,3.3,3.3,7.1,5,11.6,5h.6c4.8-.1,9-1.8,12.3-5.1,3.3-3.2,5-7.2,5-11.9v-.2c0-4.6-1.7-8.6-4.9-12s-7-5.1-11.6-5.3h0ZM407.6,80.8c-2.9-.1-5.4-1.7-7.5-4.7s-3.1-6.6-3.1-10.7,1-7.6,3.1-10.4c2-2.7,4.3-4,7.1-4h.4c2.9.2,5.4,1.8,7.4,4.8s3.1,6.6,3.1,10.7-1,7.5-3.1,10.3c-2,2.7-4.3,4-7,4,0,0-.5,0-.5,0Z"/>
      <path class="st0" d="M446,82.7c-4.2,0-7.8-1.2-10.7-3.5-2.8-2.3-4.5-5.7-4.9-10,0-1-.1-2-.1-3s0-2.5.2-3.6c.3-2,1.1-4,2.3-6,1.3-2.1,3.2-3.8,5.5-5.2,2.3-1.3,5.1-2.1,8.2-2.2h.7c3.6,0,7,1,10,2.8l-.6,5.6h0s0-.1-.2-.4c-1-2.1-2.3-3.7-3.9-4.7-1.6-.9-3.5-1.4-5.7-1.4h-.8c-2.7.2-4.8.9-6.3,2.3-1.3,1.3-2.3,2.8-2.9,4.6-.6,1.8-.9,3.7-.9,5.9s0,1.5.1,2.2c.2,3.6,1.2,6.5,2.9,8.8,2.2,3,4.8,4.8,7.6,5.2.5,0,.9.1,1.4.1,2.2,0,4.6-.7,7.2-2.2,1.3-.7,2-1,2.3-1,0,.2-.1.5-.4,1-.3.6-.7,1.1-1.1,1.5-1.3,1.1-2.9,1.9-4.7,2.4-1.9.4-3.7.7-5.4.7h0Z"/>
      <path class="st0" d="M447.3,49.7c3.4,0,6.6.9,9.5,2.6l-.4,3.7c-.9-1.7-2.1-3-3.6-3.8-1.6-1-3.7-1.5-6-1.5h-.9c-2.8.2-5,1-6.6,2.5-1.4,1.3-2.4,2.9-3,4.8-.6,1.8-1,3.8-1,6.1s0,1.5.1,2.2c.2,3.7,1.3,6.7,3,9.1,2.3,3.1,5,4.9,8,5.4.5,0,1,.1,1.5.1,2.3,0,4.8-.8,7.5-2.2.5-.3.9-.5,1.2-.6-.3.5-.6.9-.9,1.2-1.2,1.1-2.7,1.8-4.5,2.2-1.9.4-3.6.7-5.3.7-4.1,0-7.6-1.2-10.4-3.4s-4.3-5.4-4.7-9.6c0-1-.1-2-.1-2.9s0-2.4.2-3.5c.3-1.9,1-3.9,2.2-5.8,1.3-2,3.1-3.7,5.3-5,2.3-1.3,4.9-2,7.9-2.2h.7M447.3,48.7h-.7c-3.2.1-6,.9-8.4,2.3-2.4,1.4-4.3,3.2-5.7,5.3-1.3,2.1-2.1,4.1-2.4,6.2-.2,1.2-.2,2.4-.2,3.7s0,2,.1,3c.4,4.5,2.1,7.9,5,10.3,3,2.4,6.6,3.6,11,3.6,1.8,0,3.6-.2,5.6-.7,1.9-.5,3.6-1.3,4.9-2.5.4-.4.8-1,1.2-1.7.3-.6.4-1,.4-1.3s0-.2,0-.3c0,0-.2,0-.3,0-.5,0-1.4.4-2.7,1.1-2.6,1.4-4.9,2.1-7,2.1s-.9,0-1.4-.1c-2.7-.4-5.1-2.1-7.3-5-1.7-2.2-2.6-5.1-2.9-8.6,0-.7-.1-1.4-.1-2.1,0-2.1.3-4,.9-5.7.6-1.7,1.5-3.2,2.7-4.4,1.4-1.3,3.4-2.1,5.9-2.2h.8c2.2,0,4,.5,5.5,1.3,1.5.9,2.8,2.4,3.7,4.4.2.5.4.7.6.7h.1c.3,0,.4-.2.5-.5l.6-5.9c-3.2-2.1-6.7-3.1-10.6-3.1h0Z"/>
      <path class="st0" d="M479.1,82.9c-5.9,0-10.5-2-13.4-5.7-2.3-2.9-3.4-6.4-3.4-10.4s.1-2.5.3-3.8c.6-4.2,2.3-7.6,5-10.1,2.7-2.5,6.3-3.8,10.7-3.8h.1c4.4,0,7.9,1.3,10.2,3.8,2.3,2.6,3.5,6,3.5,10.1,0,.9,0,1.6-.1,1.9h0s-.2.1-.9.1h-22.9v.5c0,3.9,1.1,7.2,3,9.7,1.9,2.6,4.4,4.2,7.3,4.8.8.2,1.7.3,2.6.3,2.3,0,4.7-.7,7.2-2,1.4-.8,2.1-1,2.4-1,0,.1-.1.4-.4.9-.4.7-.5.9-.6,1-.2.2-.3.3-.5.5-2.4,2.1-5.8,3.2-10.1,3.2h0ZM478.1,51.2c-3.5,0-6,1.4-7.5,3.8-1.5,2.4-2.3,5-2.4,8v.5s19.5,0,19.5,0v-.5c0-2.9-.7-5.7-2-8.1-1.3-2.4-3.8-3.7-7.3-3.7h-.4Z"/>
      <path class="st0" d="M478.4,49.6c4.3,0,7.6,1.2,9.8,3.6,2.2,2.5,3.4,5.8,3.4,9.7,0,.7,0,1.2,0,1.6-.1,0-.3,0-.5,0h-23.4v1c0,4,1.1,7.4,3.1,10,2,2.7,4.6,4.4,7.6,5,.9.2,1.8.3,2.7.3,2.4,0,4.9-.7,7.4-2,.5-.3.9-.5,1.2-.6-.3.6-.4.7-.5.8-.2.2-.3.3-.4.4-2.4,2-5.6,3-9.7,3-5.9,0-10.1-1.8-13-5.5-2.2-2.8-3.3-6.2-3.3-10.1s.1-2.4.3-3.7c.6-4.1,2.3-7.4,4.9-9.8,2.6-2.4,6.1-3.7,10.4-3.7h.1M467.7,64h20.6v-1c0-3-.7-5.8-2.1-8.4-1.4-2.6-4-3.9-7.7-3.9h-.4c-3.6,0-6.3,1.5-7.9,4.1-1.5,2.4-2.3,5.2-2.4,8.2v1M478.4,48.6h-.1c-4.6,0-8.3,1.4-11.1,4-2.8,2.6-4.5,6.1-5.2,10.4-.2,1.3-.3,2.6-.3,3.9,0,4.1,1.2,7.7,3.6,10.7,3.1,3.9,7.7,5.9,13.8,5.9,4.4,0,7.9-1.1,10.4-3.3.1-.1.3-.3.5-.5.2-.2.4-.6.7-1.1.3-.6.5-1,.5-1.3s0-.2-.1-.3c0,0-.2,0-.3,0-.5,0-1.4.4-2.7,1.1-2.4,1.3-4.7,1.9-6.9,1.9s-1.7,0-2.5-.3c-2.8-.6-5.1-2.1-7-4.6s-2.8-5.6-2.9-9.4h22.4c.9,0,1.4-.2,1.4-.6,0-.4,0-1,.1-2,0-4.3-1.2-7.8-3.7-10.4-2.4-2.6-6-3.9-10.6-3.9h0ZM468.7,63c0-2.8.9-5.4,2.3-7.7s3.8-3.5,7.1-3.6h.4c3.3,0,5.6,1.1,6.8,3.4,1.3,2.4,1.9,5,1.9,7.9h-18.5Z"/>
      <path class="st0" d="M508.6,82.6c-2.7,0-5.4-.3-7.9-1l-2.7-7.4v-.7h.2s.1.1.4.6c1.1,2.4,2.5,4.1,4.1,5.1,1.6,1,3.7,1.6,6.2,1.6h.4c1.7,0,3.6-.4,5.7-1.2,2.4-.9,3.6-2.6,3.7-5v-.2c0-2.8-1.3-4.5-3.9-5.3-2.5-.7-4.7-1.3-6.5-1.9-2.3-.6-4.4-1.6-6.4-3-1.9-1.3-2.8-3.1-2.8-5.6v-.2c0-3.5,1.3-5.9,4-7.3,2.5-1.4,5.2-2.1,8.2-2.1s.5,0,.8,0c3.3.2,6.4,1.2,9.3,2.9l-.7,5.8c0,0,0,0,0,0h-.1s-.1,0-.3-.5c-.9-1.8-2.2-3.4-3.9-4.6-1.7-1.2-3.6-1.9-5.5-2h-.2c-1.5,0-3,.4-4.5,1.2-1.6.8-2.6,2.1-2.9,3.8-.1.5-.2,1-.2,1.5,0,1.7.8,2.9,2.2,3.6,1.7.8,3.7,1.5,5.9,2,3,.7,5.7,1.6,8.1,2.7,2.3,1.1,3.6,3.3,3.8,6.8v.3c0,1.6-.6,3.3-1.9,4.9-1.4,1.8-3.4,3.2-6.1,4.1-1.6.5-3.5.8-5.5.9h-.9,0Z"/>
      <path class="st0" d="M511.2,49.6c.2,0,.5,0,.8,0,3.1.2,6,1.1,8.8,2.7l-.5,4.3c-.9-1.6-2.1-3-3.7-4.2-1.8-1.3-3.7-2-5.8-2.1h-.1c-1.6,0-3.2.4-4.7,1.2-1.7.9-2.8,2.3-3.2,4.1-.1.6-.2,1.1-.2,1.6,0,1.9.9,3.3,2.5,4.1,1.7.9,3.8,1.6,6,2.1,2.9.7,5.6,1.6,8,2.7,2.1,1,3.3,3.1,3.5,6.3v.3c0,1.5-.6,3-1.8,4.6-1.3,1.7-3.3,3-5.8,3.9-1.6.5-3.4.8-5.4.9h-.9c-2.6,0-5.1-.3-7.5-.9l-1.7-4.6c.9,1.3,1.9,2.3,3,3.1,1.7,1.1,3.9,1.6,6.4,1.7h.4c1.8,0,3.8-.4,5.9-1.2,2.5-1,3.9-2.9,4-5.5v-.2c0-3-1.5-5-4.3-5.8-2.5-.7-4.7-1.3-6.6-1.9-2.2-.6-4.3-1.6-6.2-2.9-1.7-1.2-2.6-2.9-2.6-5.2v-.2c0-3.3,1.2-5.5,3.7-6.9,2.4-1.3,5.1-2,8-2M511.2,48.6c-3.1,0-5.9.7-8.5,2.1-2.8,1.5-4.2,4.1-4.2,7.8v.2c0,2.7,1,4.7,3,6,2,1.4,4.2,2.4,6.5,3,1.9.5,4.1,1.2,6.5,1.9,2.4.7,3.6,2.3,3.6,4.8v.2c0,2.2-1.2,3.7-3.4,4.6-2,.8-3.8,1.2-5.5,1.2h-.4c-2.4,0-4.4-.6-5.9-1.6-1.6-1-2.9-2.6-4-4.9-.3-.5-.5-.8-.7-.8h0c-.4,0-.6.2-.6.5v.7c-.1,0,2.7,7.7,2.7,7.7,2.6.8,5.4,1.1,8.3,1.1h.9c2.1,0,4-.4,5.7-.9,2.7-1,4.8-2.4,6.3-4.2,1.3-1.7,2-3.5,2-5.2v-.3c-.2-3.7-1.6-6.1-4.1-7.2-2.5-1.2-5.2-2.1-8.2-2.7-2.2-.5-4.1-1.2-5.8-2-1.3-.6-2-1.7-2-3.2s0-.9.2-1.4c.3-1.5,1.2-2.7,2.7-3.5,1.4-.7,2.8-1.1,4.2-1.1h.1c1.9,0,3.6.7,5.2,1.9,1.6,1.2,2.9,2.7,3.7,4.4.2.5.5.8.8.8h.1c.3,0,.5-.2.6-.5l.7-6.2c-3.1-1.9-6.3-2.9-9.8-3.1-.3,0-.6,0-.8,0h0Z"/>
      <path class="st0" d="M427.3,343.3c2.3.1,4.5.8,6.5,2.1l-.5,4.1c0,.2-.2.3-.4.3h0c-.2,0-.4-.2-.5-.6-.6-1.2-1.4-2.2-2.5-2.9s-2.2-1.2-3.5-1.2h0c-1,0-1.9.2-2.8.7-1,.5-1.6,1.3-1.8,2.3,0,.3-.1.7-.1.9,0,1,.4,1.7,1.3,2.1,1.1.6,2.4,1,3.9,1.3,2,.4,3.8,1.1,5.5,1.8s2.6,2.4,2.7,4.8v.2c0,1.2-.4,2.3-1.3,3.5-1,1.2-2.4,2.2-4.2,2.8-1.1.4-2.4.6-3.8.6h-.6c-1.9,0-3.8-.2-5.5-.8l-1.9-5.2v-.5c0-.2.2-.3.5-.3h0c.2,0,.3.2.5.6.7,1.6,1.6,2.6,2.6,3.3s2.4,1,3.9,1h.3c1.1,0,2.3-.3,3.7-.8,1.4-.6,2.2-1.6,2.2-3.1h0c0-1.8-.8-2.9-2.4-3.3-1.7-.5-3.1-.9-4.4-1.2-1.6-.4-3-1.1-4.4-2-1.3-.9-2-2.2-2-4h0c0-2.5.9-4.3,2.8-5.3,1.7-.9,3.6-1.4,5.7-1.4s.4,0,.6,0h0Z"/>
      <path class="st0" d="M445.7,362.4c0,1,.4,1.7,1.2,1.9s1.2.6,1.2,1-.2.5-.5.5h-7.9c-.3,0-.5-.2-.5-.5s.4-.7,1.2-1,1.2-.9,1.2-1.9v-15c0-1-.4-1.6-1.2-1.9s-1.2-.6-1.2-1,.2-.5.5-.5c1,0,2.1-.2,3.1-.5s2-.6,3-.9v19.8h0ZM443.6,333c1.7,0,2.6.9,2.6,2.6s-.9,2.6-2.6,2.6-2.6-.9-2.6-2.6.9-2.6,2.6-2.6Z"/>
      <path class="st0" d="M458.9,345.8c.9-.3,1.6-.6,2.3-.9s1.3-.5,1.9-.7c1.4-.5,2.9-.8,4.5-1,.2,0,.4,0,.6,0,1.3,0,2.6.4,3.8,1.3,1.9,1.4,2.8,4.6,2.8,9.3v8.4c0,1,.4,1.7,1.2,1.9s1.2.6,1.2,1-.2.5-.5.5h-5.7c-.3,0-.4,0-.4-.3v-11.6c0-3.4-.7-5.8-2.1-7.2-.9-.9-2-1.3-3.3-1.3s-1.6.2-2.5.4c-.3.1-.8.3-1.3.5s-1,.4-1.4.5-.7.3-1,.4v15.2c0,1,.4,1.7,1.2,1.9s1.2.6,1.2,1-.2.5-.5.5h-7.9c-.3,0-.5-.2-.5-.5s.4-.7,1.2-1,1.2-.9,1.2-1.9v-15c0-1-.4-1.6-1.2-1.9s-1.2-.6-1.2-1,.2-.5.5-.5c1,0,2.1-.2,3.1-.5s2-.6,3-.9v3.3h0Z"/>
      <path class="st0" d="M307.1,510.5c0,0-.1,0-.1,0h0s0,0,0-.2c0,0,0-.2.5-.4.4-.2.8-.5,1.2-.8.5-.4,1-.8,1.3-1.4.3-.6.4-1.1.4-1.7v-39.1c0-2.2-1.1-3-2.1-3.4-.9-.3-1.4-.7-1.4-1.1s0-.2.2-.2h32.1v8.5c0,.2,0,.2-.2.2,0,0-.2-.2-.9-1.2-1.2-1.6-2.2-2.9-3.1-3.8-1-1-2.2-1.5-3.8-1.5h-15.5v20.1h8.6c1.1,0,2.1-.5,3-1.5.5-.6.8-1.1,1.1-1.6.1-.2.3-.5.5-.5s.2,0,.2.2v8.9c0,.2,0,.2-.2.2-.3,0-.5-.3-.6-.6-.3-.6-.7-1.3-1.2-1.9-.8-.8-1.7-1.2-2.7-1.2h-8.6v19.2c0,.8.2,1.4.5,2,.3.5.7.9,1.2,1.2.4.3.8.5,1.2.7.5.3.6.5.6.5h0c0,.2-.1.2-.2.2h-12Z"/>
      <path class="st0" d="M338.8,462.7v7.1c0-.1-.2-.2-.2-.3-1.2-1.7-2.2-2.9-3.1-3.9-1-1.1-2.4-1.6-4.1-1.6h-16v21.1h9.1c1.3,0,2.4-.6,3.4-1.7.4-.4.6-.9.9-1.3v7.2c-.3-.6-.7-1.2-1.2-1.7h0s0,0,0,0c-.9-.9-1.9-1.3-3-1.3h-9.1v19.7c0,.8.2,1.6.6,2.3.4.5.8,1,1.4,1.3.3.2.6.4.9.5h-10.1c.3-.2.6-.4.9-.6.6-.4,1.1-.9,1.5-1.6h0s0,0,0,0c.3-.6.5-1.2.5-1.9v-39.1c0-2.5-1.3-3.5-2.4-3.8-.3-.1-.6-.2-.7-.3h31M339.8,461.7h-32.6c-.5,0-.7.2-.7.7s.6,1.1,1.8,1.5c1.2.4,1.8,1.4,1.8,2.9v39.1c0,.5-.1,1-.3,1.5-.3.5-.7.9-1.2,1.2-.5.3-.9.6-1.2.8-.5.3-.7.6-.7.9,0,.5.2.7.7.7h12c.3,0,.5-.1.7-.4,0,0,0-.2,0-.3,0-.3-.3-.6-.8-.9-.4-.2-.7-.4-1.2-.7s-.8-.6-1.1-1c-.3-.5-.5-1.1-.5-1.7v-18.7h8c.9,0,1.7.3,2.3,1,.5.6.9,1.1,1.2,1.7.3.6.6.9,1.1.9s.7-.2.7-.7v-8.9c0-.5-.2-.7-.7-.7s-.7.3-1,.8c-.3.5-.6,1-1,1.6-.8.9-1.6,1.3-2.6,1.3h-8.1v-19.1h15c1.4,0,2.5.4,3.4,1.3.9.9,1.9,2.1,3,3.8.6.9,1.1,1.4,1.3,1.4.5,0,.7-.2.7-.7v-9h0Z"/>
      <path class="st0" d="M346.1,510.5c-.2,0-.2,0-.2-.2,0-.3.5-.7,1.4-1,1-.3,2.1-1.2,2.1-3.4v-22.5c0-2.1-1.1-3-2.1-3.3-.9-.3-1.4-.7-1.4-1.1s0-.2.2-.2c1.6,0,3.2-.3,4.7-.7,1.3-.4,2.6-.7,3.9-1.2v4.7l5.6-2.1c1.8-.7,3.2-1.2,4.2-1.5.2,0,.6-.1.9-.1.7,0,1.7.2,2.8.6l-.7,8h-.8c-1-3.4-2.9-5.1-5.7-5.1s-.5,0-.8,0c-2,.2-3.4,1.2-4.2,3-.8,1.7-1.2,3.6-1.3,5.9v15.8c0,2.2,1.1,3,2.1,3.4.9.3,1.4.7,1.4,1s0,.2-.2.2h-11.9,0Z"/>
      <path class="st0" d="M354.2,477.5v4.7l1.4-.5,4.9-1.9c1.8-.7,3.2-1.2,4.2-1.5.2,0,.5-.1.8-.1.6,0,1.3.1,2.2.4l-.6,7c-1.4-4.1-4-5-6-5s-.6,0-.9,0c-2.1.2-3.7,1.4-4.6,3.3-.8,1.7-1.3,3.8-1.3,6.1v15.8c0,2.5,1.3,3.5,2.4,3.8.3.1.5.2.7.3h-10.5c.2,0,.4-.2.7-.3,1.1-.4,2.4-1.4,2.4-3.8v-22.5c0-2.4-1.3-3.4-2.4-3.8-.4-.1-.6-.3-.8-.4,1.4-.1,2.9-.3,4.3-.7,1.1-.3,2.2-.6,3.3-1M355.2,476.1c-1.5.5-3,1-4.5,1.4s-3,.6-4.6.7c-.5,0-.7.2-.7.7s.6,1.1,1.8,1.6c1.2.4,1.8,1.4,1.8,2.9v22.5c0,1.5-.6,2.5-1.8,2.9-1.2.4-1.8.9-1.8,1.5s.2.7.7.7h11.9c.5,0,.7-.2.7-.7s-.6-1.1-1.7-1.5-1.7-1.4-1.7-2.9v-15.8c0-2.2.5-4.1,1.2-5.7.8-1.6,2-2.5,3.8-2.7.3,0,.5,0,.8,0,2.6,0,4.4,1.7,5.3,5.1h1.6l.8-8.8c-1.3-.5-2.4-.7-3.3-.7s-.8,0-1.1.1c-1,.3-2.4.8-4.2,1.5l-4.9,1.9v-4.6h0Z"/>
      <path class="st0" d="M389.1,511.4c-4.3,0-8.1-1.6-11.3-4.8-3.3-3.3-4.9-7.3-4.9-11.8h0c0-5.1,1.9-9.3,5.6-12.7.4-.4,1-.7,1.8-1,.9-.3,2.2-.8,3.9-1.4,1-.4,2.2-.8,3.4-1.2,1.1-.4,2-.6,2.7-.6h.1c4.4.2,8.2,1.9,11.2,5.1,3.1,3.2,4.7,7.1,4.7,11.6v.2c0,4.5-1.6,8.4-4.8,11.5-3.3,3.2-7.3,4.9-12,5h-.6,0ZM389.4,479.3c-2.9,0-5.4,1.4-7.5,4.2-2.1,2.9-3.2,6.5-3.2,10.7s1.1,7.9,3.2,10.9c2.1,3.1,4.8,4.8,7.9,4.9h.5c2.9,0,5.4-1.4,7.4-4.2,2.1-2.9,3.2-6.4,3.2-10.6s-1.1-7.9-3.2-10.9c-2.2-3.1-4.8-4.8-7.8-5h-.4,0Z"/>
      <path class="st0" d="M390.5,478.4c4.3.2,7.9,1.8,10.9,5,3,3.1,4.5,6.9,4.6,11.3v.2c0,4.4-1.5,8.1-4.7,11.2-3.2,3.1-7.1,4.7-11.6,4.9h-.6c-4.3,0-7.8-1.5-10.9-4.7-3.2-3.3-4.8-7-4.8-11.4h0c0-5,1.8-9,5.5-12.3.3-.3.9-.6,1.6-.9.9-.3,2.1-.8,3.9-1.4,0,0,.2,0,.2,0-1.2.7-2.2,1.7-3.2,3.1-2.2,3-3.3,6.7-3.3,11s1.1,8.1,3.2,11.2c2.2,3.3,5,5,8.2,5.2h.5c3,0,5.7-1.5,7.8-4.4,2.2-2.9,3.3-6.6,3.3-10.9s-1.1-8.1-3.3-11.2c-2.2-3.3-5-5-8.2-5.2h-.5c-.4,0-.8,0-1.2,0,.9-.3,1.6-.4,2.2-.4h0M390.5,477.4h-.1c-.8,0-1.7.2-2.9.6-1.2.4-2.4.9-3.4,1.2-1.7.6-3,1.1-3.9,1.4-.9.3-1.5.7-2,1.1-3.8,3.5-5.8,7.8-5.8,12.9h0c0,4.8,1.7,8.8,5.1,12.2,3.3,3.3,7.1,5,11.6,5h.6c4.8-.1,9-1.9,12.3-5.1,3.3-3.2,5-7.2,5-11.9v-.2c0-4.6-1.7-8.6-4.8-12s-7-5.1-11.6-5.3h0ZM389.7,509.5c-2.9-.1-5.4-1.7-7.5-4.7s-3.1-6.6-3.1-10.7,1-7.6,3.1-10.4c2-2.6,4.3-4,7.1-4h.4c2.9.2,5.4,1.8,7.4,4.8s3.1,6.6,3.1,10.7-1,7.6-3.1,10.3c-2,2.6-4.3,4-7,4,0,0-.5,0-.5,0Z"/>
      <path class="st0" d="M439.9,510.5c-.1,0-.2,0-.2,0v-17.3c0-5.2-1.1-9-3.3-11.2-1.4-1.4-3.2-2.1-5.3-2.1s-2.5.2-3.8.7c-.5.2-2.1.8-2.1.8l-3.7,1.4v23.1c0,2.2,1.1,3,2.1,3.4.9.3,1.4.7,1.4,1s0,.2-.2.2h-11.9c-.2,0-.2,0-.2-.2,0-.3.5-.7,1.4-1,.9-.3,2.1-1.2,2.1-3.4v-22.5c0-2.1-1.1-3-2.1-3.3-.9-.3-1.4-.7-1.4-1.1s0-.2.2-.2c1.6,0,3.2-.3,4.7-.7,1.3-.4,2.6-.7,3.9-1.2v4.9l4.1-1.6c1-.4,1.9-.7,2.8-1,2.1-.7,4.3-1.2,6.6-1.4.3,0,.5,0,.8,0,1.9,0,3.6.6,5.3,1.9,2.7,2.1,4.1,6.6,4.1,13.6v12.7c0,2.2,1.1,3,2.1,3.4.9.3,1.4.7,1.4,1s0,.2-.2.2h-8.5Z"/>
      <path class="st0" d="M420.9,477.5v28.4c0,2.5,1.3,3.5,2.4,3.8.3.1.5.2.7.3h-10.5c.2,0,.4-.2.7-.3,1.1-.4,2.4-1.4,2.4-3.8v-22.5c0-2.4-1.3-3.4-2.4-3.8-.4-.1-.6-.3-.8-.4,1.4-.1,2.9-.3,4.3-.7,1.1-.3,2.2-.6,3.3-1M435.7,478.2c1.8,0,3.4.6,5,1.8,2.6,2,3.9,6.4,3.9,13.2v12.7c0,2.5,1.3,3.5,2.4,3.8.3.1.5.2.7.3h-7.4v-16.8c0-5.4-1.2-9.3-3.5-11.5-1.6-1.5-3.5-2.3-5.7-2.3s-2.2.2-3.5.6c.3-.1.6-.2.8-.3,2.1-.7,4.3-1.2,6.5-1.4.3,0,.5,0,.8,0M421.9,476.1c-1.5.5-3,1-4.5,1.4-1.5.4-3,.6-4.6.7-.5,0-.7.2-.7.7s.6,1.1,1.8,1.6c1.2.4,1.8,1.4,1.8,2.9v22.5c0,1.5-.6,2.5-1.8,2.9-1.2.4-1.8.9-1.8,1.5s.2.7.7.7h11.9c.5,0,.7-.2.7-.7s-.6-1.1-1.8-1.5c-1.2-.4-1.8-1.4-1.8-2.9v-22.8c.4-.2.9-.4,1.5-.6s1.2-.5,2-.8c.8-.3,1.4-.5,1.9-.7,1.3-.4,2.6-.7,3.7-.7,2,0,3.6.7,5,2,2.1,2.1,3.2,5.7,3.2,10.8v17.3c0,.3.2.5.6.5h8.5c.5,0,.7-.2.7-.7s-.6-1.1-1.8-1.5-1.8-1.4-1.8-2.9v-12.7c0-7.2-1.4-11.9-4.2-14-1.8-1.3-3.7-2-5.6-2s-.6,0-.9,0c-2.3.2-4.6.7-6.7,1.5-.9.3-1.8.6-2.8,1-1,.4-2.1.8-3.4,1.3v-4.9h0Z"/>
      <path class="st0" d="M470.2,510.5c-3.2,0-6-.4-8.2-1-2.1-.6-3.2-3-3.2-7.3v-21.4h-.5c-.9,0-2.2.1-4,.2h-.1c-.2,0-.2,0-.2-.2,0-.1,0-.3.4-.5.5-.2,1.4-.7,2.9-1.5.3-.2.6-.3,1-.5h.6v-6.5c0-1,.2-1.7.6-2.1.3-.3,1.1-.8,3.2-1.8.7-.3,1.1-.4,1.3-.4s.3,0,.3.4v10.3l8.9-.2s0,.1,0,.4,0,.7-.1,1.1c-.2,1.1-.7,1.2-1.1,1.2h-7.7s0,22.5,0,22.5c0,2.3.8,4,2.4,5.2,1.4,1,2.6,1.6,3.6,1.8v.2h0ZM473,478h0Z"/>
      <path class="st0" d="M463.7,468v10.7h1s7.9-.2,7.9-.2c0,.2,0,.6-.1.9-.2.9-.5.9-.6.9h-7.2s-1,0-1,0v23c0,2.5.9,4.4,2.6,5.6.6.4,1.1.7,1.6,1-2.2-.1-4.1-.4-5.8-.9-1.9-.5-2.9-2.8-2.9-6.8v-21.9h-1c-.7,0-1.8,0-3.1.2.6-.3,1.3-.7,2.4-1.2.3-.1.6-.3.8-.4h1v-7c0-1.2.3-1.6.4-1.7.2-.2.9-.7,3.1-1.7.4-.2.7-.3.9-.3M463.9,467c-.4,0-.9.2-1.5.5-1.7.8-2.8,1.5-3.3,1.9-.5.5-.7,1.3-.7,2.4v6c-.1,0-.2,0-.3,0-.3.1-.7.3-1,.5-1.5.8-2.4,1.3-2.9,1.5-.4.2-.7.5-.7.9h0c0,.5.3.8.7.8h.2c1.8,0,3.1-.1,4-.2v20.9c0,4.5,1.2,7.1,3.6,7.8s5.3,1,8.8,1v-1.1c-1.1-.1-2.3-.7-3.8-1.8-1.5-1.1-2.2-2.6-2.2-4.8v-22h7.2c.8,0,1.4-.5,1.6-1.6,0-.5.1-.9.1-1.2,0-.6-.2-.9-.5-.9h0l-8.4.2v-9.8c0-.6-.3-.9-.8-.9h0Z"/>
      <path class="st0" d="M494.6,511.6c-5.9,0-10.5-2-13.4-5.7-2.3-2.9-3.4-6.4-3.4-10.4s.1-2.5.3-3.8c.6-4.2,2.3-7.6,5-10.1,2.7-2.5,6.3-3.8,10.7-3.8h.1c4.4,0,7.9,1.3,10.2,3.8,2.3,2.6,3.5,6,3.5,10.1,0,.9,0,1.6-.1,1.9h0s-.2.1-.9.1h-22.9v.5c0,3.9,1.1,7.2,3,9.7,1.9,2.6,4.4,4.2,7.3,4.8.8.2,1.7.3,2.6.3,2.3,0,4.7-.7,7.2-2,1.4-.8,2.1-1,2.4-1,0,.1-.1.4-.4.9-.4.7-.5.9-.6,1-.2.2-.3.3-.5.5-2.4,2.1-5.8,3.2-10.1,3.2h0ZM493.6,479.9c-3.5.1-6,1.4-7.5,3.8-1.5,2.4-2.3,5-2.4,7.9v.5s19.5,0,19.5,0v-.5c0-2.9-.7-5.7-2-8.1-1.3-2.4-3.8-3.7-7.3-3.7h-.4Z"/>
      <path class="st0" d="M493.9,478.3c4.3,0,7.6,1.2,9.8,3.6,2.2,2.5,3.4,5.8,3.4,9.7,0,.7,0,1.2,0,1.6-.1,0-.3,0-.5,0h-23.4v1c0,4,1.1,7.4,3.1,10,2,2.7,4.6,4.4,7.6,5,.9.2,1.8.3,2.7.3,2.4,0,4.9-.7,7.4-2.1.5-.3.9-.5,1.2-.6-.3.6-.4.7-.5.8-.2.2-.3.3-.4.4-2.4,2-5.6,3-9.7,3-5.9,0-10.1-1.9-13-5.5-2.2-2.8-3.3-6.2-3.3-10.1s.1-2.4.3-3.7c.6-4.1,2.3-7.4,4.9-9.8,2.6-2.4,6.1-3.7,10.4-3.7h.1M483.2,492.6h20.6v-1c0-3-.7-5.8-2.1-8.4-1.4-2.6-4-3.9-7.7-3.9h-.4c-3.6.1-6.3,1.5-7.9,4.1-1.5,2.4-2.3,5.2-2.4,8.2v1M493.9,477.3h-.1c-4.6,0-8.3,1.4-11.1,4s-4.5,6.1-5.2,10.4c-.2,1.3-.3,2.6-.3,3.9,0,4.1,1.2,7.7,3.6,10.7,3.1,3.9,7.7,5.9,13.8,5.9,4.4,0,7.9-1.1,10.4-3.3.1-.1.3-.3.5-.5.2-.2.4-.6.7-1.1.3-.6.5-1,.5-1.3s0-.2-.1-.3c0,0-.2,0-.3,0-.5,0-1.4.4-2.7,1.1-2.4,1.3-4.7,1.9-6.9,1.9s-1.7,0-2.5-.3c-2.8-.6-5.1-2.1-7-4.6s-2.8-5.6-2.9-9.4h22.4c.9,0,1.4-.2,1.4-.6s0-1.1.1-2c0-4.3-1.2-7.8-3.7-10.4-2.4-2.6-6-3.9-10.6-3.9h0ZM484.2,491.6c0-2.8.9-5.4,2.3-7.7s3.8-3.5,7.1-3.6h.4c3.3,0,5.6,1.1,6.8,3.4,1.3,2.4,1.9,5,1.9,7.9h-18.5Z"/>
      <path class="st0" d="M515.3,510.5c-.2,0-.2,0-.2-.2,0-.3.5-.7,1.4-1,.9-.3,2.1-1.2,2.1-3.4v-22.5c0-2.1-1.1-3-2.1-3.3-.9-.3-1.4-.7-1.4-1.1s0-.2.2-.2c1.6,0,3.2-.3,4.7-.7,1.3-.4,2.6-.7,3.9-1.2v4.7l5.6-2.1c1.8-.7,3.2-1.2,4.2-1.5.2,0,.6-.1.9-.1.7,0,1.7.2,2.8.6l-.7,8h-.8c-1-3.4-2.9-5.1-5.6-5.1s-.6,0-.8,0c-2,.2-3.4,1.2-4.2,3-.8,1.7-1.2,3.6-1.3,5.9v15.8c0,2.2,1.1,3,2.1,3.4.9.3,1.4.7,1.4,1s0,.2-.2.2h-11.9,0Z"/>
      <path class="st0" d="M523.5,477.5v4.7l1.4-.5,4.9-1.9c1.8-.7,3.2-1.2,4.2-1.5.2,0,.5-.1.8-.1.6,0,1.4.1,2.2.4l-.6,7c-1.4-4.1-4-5-6-5s-.6,0-.9,0c-2.1.2-3.7,1.4-4.6,3.3-.8,1.7-1.3,3.8-1.3,6.1v15.8c0,2.5,1.3,3.5,2.4,3.8.3.1.5.2.7.3h-10.6c.2,0,.4-.2.7-.3,1.1-.4,2.4-1.4,2.4-3.8v-22.5c0-2.4-1.3-3.4-2.4-3.8-.4-.1-.6-.3-.8-.4,1.4-.1,2.9-.3,4.3-.7,1.1-.3,2.2-.6,3.3-1M524.5,476.1c-1.5.5-3,1-4.6,1.4-1.5.4-3,.6-4.6.7-.5,0-.7.2-.7.7s.6,1.1,1.8,1.6c1.2.4,1.8,1.4,1.8,2.9v22.5c0,1.5-.6,2.5-1.8,2.9-1.2.4-1.8.9-1.8,1.5s.2.7.7.7h11.9c.5,0,.7-.2.7-.7s-.6-1.1-1.7-1.5-1.7-1.4-1.7-2.9v-15.8c0-2.2.5-4.1,1.2-5.7.8-1.6,2-2.5,3.8-2.7.3,0,.5,0,.8,0,2.6,0,4.4,1.7,5.3,5.1h1.6l.8-8.8c-1.3-.5-2.4-.7-3.3-.7s-.8,0-1.1.1c-1,.3-2.4.8-4.2,1.5l-4.9,1.9v-4.6h0Z"/>
      <path class="st0" d="M554.6,511.4c-3.2-.2-5.9-1.5-8.2-3.9-2.3-2.5-3.7-5.5-4-9.1,0-1-.1-1.9-.1-2.8s0-2.4.2-3.5c.3-1.9,1-3.9,2.2-5.8.6-1,1.6-2,3-3.1.5-.3,1-.6,1.6-.9,1.9-.7,3.7-1.4,5.6-2.1,1.9-.7,3.8-1.4,5.7-2.1.3-.1.7-.2.9-.2h.2c1.4,0,3.2.4,5.3,1.1.1,0,.2,0,.3.1.5.2,1.2.5,2,.7.4.1.7.2,1,.2.5,0,.9-.1,1.3-.4.5-.5.9-.8,1.1-1.1,0,0,.1,0,.1,0s0,0,0,0c.4.1.5.3.5.3v27.2c0,2.2,1.1,3,2.1,3.4.9.3,1.4.7,1.4,1s0,.2-.2.2h-8.5c-.1,0-.2,0-.2,0v-2.5c0,0,0-.7,0-.7l-10.3,3.8c-.7.2-1.3.4-1.7.4h-1.4,0ZM559.4,479.8c-.5,0-1.1.1-1.6.3-.8.3-1.7.6-2.5.9-.8.3-1.7.6-2.5.9-.7.3-1.2.6-1.6,1-1.5,1.6-2.5,3.6-3,5.9-.4,1.7-.6,3.4-.6,5.1s0,1.1,0,1.6c.3,3.4,1.2,6.3,2.8,8.5,1.6,2.3,3.7,3.8,6.2,4.4.9.3,1.9.4,2.8.4s.6,0,.9,0c.6,0,1.2-.2,2-.5.5-.2,1.4-.5,2.5-.9,1.1-.4,2.1-.8,2.8-1.1h.3v-22.6h-.2c-1-1.1-2.3-1.9-3.9-2.7-1.6-.8-3.1-1.2-4.4-1.3h-.2Z"/>
      <path class="st0" d="M561.7,478.4c1.4,0,3.1.4,5.1,1.1.1,0,.2,0,.2.1h0c.5.2,1.2.5,2,.8.4.1.8.2,1.1.2.6,0,1.1-.2,1.6-.5h0s0,0,0,0c.4-.4.7-.7,1-.9v26.9c0,2.5,1.3,3.5,2.4,3.8.3.1.5.2.7.3h-7.5v-26.5l-.3-.3c-1-.9-2.4-1.8-4-2.6-1.7-.8-3.2-1.3-4.6-1.3h-.1c-.3,0-.5,0-.8,0,.7-.3,1.4-.5,2.2-.8.3-.1.6-.1.8-.1h.1M551.8,481.9c-.4.2-.7.5-1,.8-1.6,1.7-2.6,3.7-3.2,6.1-.4,1.7-.6,3.5-.6,5.2s0,1.1,0,1.7c.3,3.6,1.3,6.5,2.9,8.7,1.7,2.4,3.9,3.9,6.4,4.6,1,.3,2,.4,3,.4s.6,0,1,0c.2,0,.5,0,.7-.1l-3.6,1.3c-.8.3-1.3.3-1.5.3h-1.4c-3.1-.1-5.7-1.4-7.9-3.8-2.2-2.4-3.5-5.3-3.8-8.8,0-.9-.1-1.9-.1-2.8s0-2.3.2-3.4c.3-1.8,1-3.7,2.2-5.6.5-.9,1.5-1.9,2.9-2.9.4-.3,1-.6,1.5-.8.8-.3,1.6-.6,2.3-.9M561.7,477.4h-.2c-.4,0-.7,0-1.1.2-1.9.7-3.8,1.4-5.7,2.1s-3.8,1.4-5.6,2.1c-.6.3-1.2.6-1.7.9-1.5,1.1-2.5,2.2-3.1,3.2-1.3,2-2,4-2.3,6-.2,1.1-.2,2.3-.2,3.6s0,1.9.1,2.9c.3,3.7,1.7,6.9,4.1,9.4s5.3,3.9,8.6,4.1h1.4c.5,0,1.1-.1,1.9-.4l9.7-3.6v2.6c0,.3.2.5.6.5h8.5c.5,0,.7-.2.7-.7s-.6-1.1-1.8-1.5-1.8-1.4-1.8-2.9v-27.2c0-.3-.3-.5-.8-.7-.1,0-.2,0-.4,0-.2,0-.3,0-.5.2-.2.3-.6.6-1,1.1-.3.2-.6.3-1,.3s-.5,0-.8-.1c-.8-.3-1.4-.5-1.9-.7,0,0-.2,0-.4-.1-2.1-.7-4-1.1-5.4-1.1h0ZM559.5,508.4c-.9,0-1.8-.1-2.7-.4-2.4-.7-4.3-2.1-5.9-4.2-1.6-2.1-2.5-4.9-2.7-8.2,0-.5,0-1.1,0-1.6,0-1.6.2-3.3.6-5,.5-2.2,1.5-4.1,2.9-5.6.4-.4.8-.7,1.4-.9.8-.3,1.7-.6,2.5-.9.8-.3,1.7-.6,2.5-.9.5-.2.9-.3,1.4-.3h.1c1.2,0,2.6.4,4.2,1.2,1.6.8,2.8,1.6,3.8,2.5v21.9c-.7.3-1.7.6-2.8,1.1-1.1.4-2,.7-2.5.9-.7.3-1.3.4-1.8.5-.3,0-.6,0-.9,0h0Z"/>
      <path class="st0" d="M593.9,511.3c-2.7,0-5.4-.4-7.9-1l-2.7-7.4v-.7h.2s.1.1.4.6c1.1,2.4,2.5,4.1,4.1,5.1,1.6,1,3.7,1.6,6.2,1.6h.4c1.7,0,3.6-.4,5.7-1.2,2.4-.9,3.6-2.6,3.7-5v-.2c0-2.8-1.3-4.6-4-5.3-2.5-.7-4.7-1.3-6.5-1.9-2.3-.6-4.4-1.6-6.4-3-1.9-1.3-2.8-3.1-2.8-5.6v-.2c0-3.5,1.3-5.9,4-7.3,2.5-1.4,5.2-2.1,8.2-2.1s.5,0,.8,0c3.3.2,6.4,1.1,9.3,2.9l-.7,5.8c0,0,0,.1,0,.1h-.1s-.1,0-.3-.5c-.9-1.8-2.2-3.4-3.9-4.6-1.7-1.2-3.5-1.9-5.5-2h-.2c-1.5,0-3,.4-4.5,1.1-1.6.8-2.6,2.1-2.9,3.8-.1.5-.2,1.1-.2,1.5,0,1.7.8,2.9,2.2,3.6,1.7.9,3.7,1.5,5.9,2,3,.7,5.7,1.6,8.1,2.7,2.3,1.1,3.5,3.3,3.8,6.8v.3c0,1.6-.6,3.3-1.9,4.9-1.4,1.8-3.4,3.2-6.1,4.1-1.6.5-3.5.9-5.5.9h-.9,0Z"/>
      <path class="st0" d="M596.5,478.3c.2,0,.5,0,.8,0,3.1.2,6,1.1,8.8,2.7l-.5,4.3c-.9-1.6-2.1-3.1-3.7-4.2-1.8-1.3-3.7-2-5.8-2.1h-.1c-1.6,0-3.2.4-4.7,1.2-1.7.9-2.8,2.3-3.2,4.1-.1.6-.2,1.1-.2,1.6,0,1.9.9,3.3,2.5,4.1,1.7.9,3.8,1.6,6,2.1,2.9.7,5.6,1.6,8,2.7,2.1,1,3.3,3.1,3.5,6.3v.3c0,1.5-.6,3.1-1.8,4.6-1.3,1.7-3.3,3-5.8,3.9-1.6.5-3.4.8-5.4.9h-1c-2.6,0-5.1-.3-7.5-.9l-1.7-4.6c.9,1.3,1.9,2.4,3,3.1,1.7,1.1,3.9,1.6,6.5,1.7h.4c1.8,0,3.8-.4,5.9-1.2,2.5-1,3.9-2.9,4-5.5v-.2c0-3-1.5-5-4.3-5.8-2.5-.7-4.7-1.3-6.5-1.9-2.2-.6-4.3-1.6-6.2-2.9-1.7-1.2-2.6-2.9-2.6-5.2v-.2c0-3.3,1.2-5.5,3.7-6.9,2.4-1.3,5.1-2,8-2M596.5,477.3c-3.1,0-5.9.7-8.5,2.1-2.8,1.6-4.2,4.1-4.2,7.8v.2c0,2.7,1,4.7,3,6.1,2,1.4,4.2,2.4,6.5,3,1.9.5,4,1.2,6.5,1.9,2.4.7,3.6,2.3,3.6,4.8v.2c0,2.2-1.2,3.7-3.4,4.6-2,.8-3.8,1.2-5.5,1.2h-.4c-2.4,0-4.4-.6-5.9-1.6-1.6-1-2.9-2.6-4-4.9-.3-.5-.5-.8-.7-.8h0c-.4,0-.6.2-.6.5v.7c-.1,0,2.7,7.7,2.7,7.7,2.6.8,5.4,1.1,8.3,1.1h1c2.1,0,4-.4,5.7-.9,2.7-1,4.8-2.4,6.3-4.2,1.3-1.7,2-3.5,2-5.2v-.4c-.2-3.7-1.6-6.1-4.1-7.2-2.5-1.1-5.2-2.1-8.2-2.7-2.2-.5-4.1-1.2-5.8-2-1.3-.6-2-1.7-2-3.2s0-.9.2-1.4c.3-1.6,1.2-2.7,2.7-3.4,1.4-.7,2.8-1.1,4.2-1.1h.1c1.9,0,3.6.7,5.2,1.9,1.6,1.2,2.9,2.6,3.7,4.4.2.5.5.8.8.8h.1c.3,0,.5-.2.6-.5l.7-6.1c-3.1-1.9-6.3-2.9-9.8-3.1-.3,0-.6,0-.8,0h0Z"/>
    </g>
  </g>
</svg>