<?xml version="1.0" encoding="UTF-8"?><svg id="b" xmlns="http://www.w3.org/2000/svg" viewBox="0 0 866.09 534.96"><g id="c"><path d="M116.08,534.96c-2.82-3.01-4.16-5.77-2.45-9.96,36.94-41.85,75.04-82.33,112.97-123.02,18.63-19.99,37.26-42.46,56.52-61.53,8.79-8.71,16.24-11.79,27.86-4.87,14.52,8.65,33.18,22.51,47.43,32.57,21.03,14.84,24.29,25.53,53.17,24.8,23.18-.58,46.81-.92,70.05-1.95,15.45-.68,18.95-.79,31.39-9.61,13.8-9.78,26.21-22.2,39.59-32.41,2.18-1.66,11.88-8.84,13.52-9.5,2.74-1.11,10.14.68,12.97,1.97,3.11,1.42,6.54,5.47,9.01,7.99,32.31,32.86,62.55,69.48,92.49,104.51,18.59,21.76,35.81,44.74,55.57,65.48,2.5,3.26-2.15,9.92-5.62,10.53-5.89,1.04-4.72-2.17-7.01-4.95-30.65-37.13-61.21-74.87-92.93-111.07-14.38-16.41-34.28-40.48-49.87-54.63-11.15-10.13-11.94-4.11-20.73,2.06-14.79,10.38-29.6,20.54-44.39,31.61-4.79,3.59-6.41,8.08-13.47,9.53-38.05.89-76.39,4.21-114.32,2.21-6.87-1.51-14.35-11.07-19.82-15.18-13.19-9.91-28.95-18.05-42.16-27.62-8.89-6.44-14.94-17.35-27.31-17.01-3.95.11-3.4,2.62-5.55,4.45-21.63,18.38-41.06,40.72-60.45,61.55-32.95,35.4-65.14,71.47-97.42,107.58-5.42,6.07-8.34,12.59-16.03,16.47h-3Z"/><path d="M727.74,115.61c-15.87,12.42-33.12,23.35-48.36,36.64-2.34,4.99-4.18,14.16,2.94,15.55,45.53-25.97,91.25-51.57,137.06-77.05,2.8-1.56,5.55-3.09,8.36-4.64,4.62-2.57,19.82-12.42,23.56-11.99,10.98,1.26,18.31,20.51,12.63,30.19-2.86,4.87-22.21,15.32-28.18,18.82-46.31,27.21-93.7,52.96-140.33,79.67-3.45,1.98-14.4,6.06-15.83,9.17-1.15,2.51-.14,12.66,3.02,13.04,3.45.41,25.48-9.23,30.93-11.09,22.56-7.71,45.04-15.69,67.58-23.42,23.11-7.94,46.54-14.97,69.46-23.46,6.88-.03,14.81,13.51,15.43,19.53,1.32,12.85-14.83,18.19-24.66,22.17-52.49,21.29-108.87,37.25-161.98,57.02-13.83,5.15-32.63,13.74-16.3,28.72,55.14,50.59,117.53,96.52,172.03,147.97,2.17,2.05,12.78,12.03,13.46,13.53.83,1.82,1.33,6.04-1.12,6.84-2.14.14-4.77.52-6.84.12-2.87-.56-16.06-14.48-19.5-17.49-48.23-42.09-97.45-83.3-146.54-124.46-8-6.71-22.48-16.09-28.97-23.03-6.12-6.55-2.31-12.01,1.33-18.67,5.87-10.74,10.42-14.54,21.49-19.51l184.51-67.98c1.19-6.16-.89-11.88-8.07-10.64-55.94,19.92-112.22,38.96-167.49,60.64-10.26-.32-6.72-10.76-10.21-17.39,1.28-5.73-1.34-14.98,1.15-19.74,1.62-3.09,19.98-13.03,24.45-15.55,47.57-26.93,97.59-51.01,144.05-79.95,3.05-1.9,22.9-14.89,16.7-19.32-6.79-4.86-22.35,5.63-28.68,9.13-49.51,27.35-98.48,58.36-148.7,85.52-5.81,2.63-7.54-3.86-8.58-8.48-2.02-8.96-1.81-19.11-5.45-28.04,5.19-.08,7.05-4.43,10.68-6.84,30.84-20.57,59.08-44.73,88.41-67.59,18.68-14.56,42.14-29.25,59.4-44.6,3.9-3.47,11.53-11.24,4.9-15.85-1.03-.72-4.5-2.02-5.7-1.85-3.38.5-15.21,10.41-18.7,13.21-25.11,20.15-50.62,41.04-76.96,60.06-17.63,12.72-34.91,29.75-54.95,43.03-3.92,2.6-7.82,5.59-11.58,8.42-2.23-4.62-4.68-9.2-7.47-13.52-19.65-30.5-45.14-37.43-80.52-35.46-34.09,1.9-52.55,9.31-69.68,39.32-14.67,25.69-27.75,56.83-40.06,83.94-1.25,2.76-4.83,4.55-3.75,8.74,6.92-1.87,14.13-1.27,21.37-2.12,6.34-.74,8.39-3.84,15.32-.08,7.39,4,7.8,11.56,4.07,18.47-1.79,3.3-7.63,6.02-5.23,10.71,2.52,4.94,18.95,4.1,25.44,6.55,13.41,5.06,14.66,19.9,3.5,28.45-7.9,6.05-20.85,6.13-30.47,8.03-.81.73,7.39,18.09,8.45,20.04,3.94,7.24,5.29,9.83,14.15,10.85s46.75-5.83,57.22-8.57c51.86-13.57,72.56-67.45,71.16-116.82-1.74-61.6-50.01-93.96-106.98-67-6.04,2.86-17.53,11.6-13.07,19.06,5.29,2.39,9.42-1.58,13.79-2.33,16.78-2.87,36.82-4.45,49.66,8.88,7.61,7.89,7.69,15.82,2.38,25.16-3.11,5.47-7.78,8.42-13.55,10.45-37.23,13.1-76.88,5.16-66.95-42.95,4.25-20.62,26.68-32.03,45.72-36.28,112.63-25.19,124,125.47,64.66,187.16-2.93,3.04-14.43,10.91-15.7,13.05-1.02,1.71-1.32,4.66-.75,6.58.41,1.4,9.97,12.41,11.76,14.27,9.64,10,19.41,19.97,29.02,29.98,45.96,47.85,94.84,93.6,138.81,143.19l.22,5.29h-5s1,2.99,1,2.99c-1.61.39-2.32-.33-3.52-.97-5.43-2.9-16.36-17.35-21.45-22.55-51.46-52.54-104.19-103.92-156.06-155.94-1.7-1.7-8.08-10.24-8.67-10.59-5.1-3.05-27.1,3.57-34.07,4.79-9.08,1.59-27.94,5.99-35.83,6.16-23.48.51-35.96-30.76-38.01-49.95,3.66-6.21,11.49-4.58,17.81-6.24,4.2-1.1,13.67-3.43,17.1-4.94,3.75-1.65,4.51-4.92,1.22-7.79-5.97-5.19-30.97,1.27-37-7-7.64-10.47,9.42-18.57,7.49-28.98-3.24-3.3-42.72,12.26-39.75-12.24,1.6-13.21,22.45-48.43,29.46-62.55,17.59-35.44,31.39-70.89,76.87-77.13,34.63-4.75,73.99-1.38,99.03,25.3,5.27,5.62,7.72,14.71,17.65,12.38L809.77,4.15c16.14-13.05,37.12,7.37,25.32,24.32-6.56,9.42-31.24,25.29-41.46,33.54-21.97,17.71-43.81,36.34-65.88,53.62ZM549.07,181.96c6.65,1.43,27.57-4.87,28.85-11.74.13-.73-.17-7.94-.37-8.3-2.2-3.82-12.85-6.13-16.87-7.06-3.32-.77-6.33-3.55-10.66-1.46-3.43,5.06,1.1,11.68.99,15.96-.09,3.61-3.14,8.33-1.93,12.61ZM539.08,156.95c-8.04-.76-14.91,1.58-21.84,5.16-3.26,12.04,9.47,19.72,19.9,18.4l1.94-23.57Z"/><path d="M374.53,112.52c14.65,21.98,35.15,62.48,45.41,87.08,3.12,7.49,6.97,14.55,1.41,22.12-5.05,6.88-9.89,6.61-17.76,6.22-4.49-.22-19.96-5.16-19.42,2.51.47,6.72,13.61,6.06,11.46,20.55-2.54,17.1-22.25,9.24-34.95,11.04-3.31.47-7.57,1.95-5.13,5.93,2.75,4.49,34.31,6.28,37.03,11.97,3.03,6.33-5.45,24.01-8.97,30.04-14.82,25.42-43.28,14.02-67.16,11.09-11.46-1.41-30.04-4.4-40.56-.8-10.43,3.56-23.86,23.43-32.21,32.31-50.43,53.65-101.19,107.88-151.96,161.04-1.46,1.53-8.33,7.66-9.96,7.23l-5.73-7.49c-.08-1.94,2.03-4.57,3.38-6.05,10.3-11.35,21.4-22.74,31.64-33.86,39.01-42.34,79.75-83.46,119.49-124.51,9.16-9.46,30.55-34.55,40.82-39.18,2.57-1.16,6.41-2.51,9.19-2.81,19.54-2.17,42.47,5.12,61.96,6.05,6.42.31,24.21.83,28.6-3.48,2.15-2.11,3.48-6.9,4.97-9.82.41-.8,2.03-.76,2.54-2.64,3.31-12.08-11.25-11.86-19.01-14.17-4.43-1.31-8.65-3.49-13.33-4.17-3.09-7.1-5.86-14.96-2.47-22.51,5.76-12.81,32-4.62,35.13-8.36s-5.39-8.39-7.34-10.98c-4.46-5.95-6.99-13.8-.52-19.39,11.29-9.77,28.88,1.32,41.54-2.47,2.27-3.14-4.46-10.97-5.96-14.18-4.72-10.05-9.53-19.65-14.47-29.53-23.84-47.73-32.14-83.16-95.64-83.45-25.66-.12-53.86,5.06-73.03,23.07-5.37,5.05-12.93,17.88-20.89,17.02-1.18-.13-7.85-2.33-9.2-2.93-1.81-.8-2.28-2.56-3.13-3.04-37.83-21.16-75.24-43.32-112.76-65.02-9.23-5.34-18.99-16.26-30.23-11.76-2.6,3.68-.59,7.03,2.4,9.6,38.18,23.41,76.84,46.02,115.67,68.33,9.11,5.23,23.38,10.97,31.18,16.82,1.64,1.23,7.17,6.87,7.32,8.68-7.07,9.59-6.82,19.96-7.83,31.34-13.93.4-26.19-5.38-38.7-10.81-35.48-15.43-70.96-34.05-106.79-49.21-4.9-2.07-21.87-9.37-25.92-8.97-4.44.43-8.23,4.68-6.14,8.98,1.41,2.91,25.39,13.84,30.05,16,40.96,19.06,83.03,36.8,124.5,54.5,2.98,1.27,7.16,1.48,10.7,3.3,4.26,2.19,7.85,7.6,13.25,7.25-.36,7.63.68,15.94.09,23.48-1.11,14.29-4.15,12.9-16.24,10.17-34.45-7.78-70.2-20.2-104.58-29.42-14.77-3.96-40.9-12.91-54.83-14.16-2-.18-6.84-.78-7.94.81-.56,2.01-1.06,6.5.02,8.1.63.94,18.48,6.79,21.32,7.67,28.7,8.91,58.46,15.42,87.43,23.57,23.99,6.76,54.97,13.61,77.48,22.52,1.54.61,10.46,4.87,11.04,5.46.34.35,5.05,6.86,5.68,7.82,7.33,11.24,10.32,18.8.11,28.94-41.27,40.97-85.16,79.7-127.04,119.93-22.79,21.9-44.39,45.17-68.18,65.94-4.09-.64-7.03-2.5-6.1-7.16,1.03-5.14,19.4-21.88,24.27-26.77,44.12-44.24,90.82-87.68,137.51-129.49,9.09-8.14,19.31-15.44,28.03-23.97,2.76-2.7,5.74-4.86,6.05-9.03.44-5.99-9.52-19.29-14.7-22.34-6.67-3.94-23.14-5.14-31.75-7.25-43.91-10.74-87.96-24.1-131.6-36.4-7.74-2.18-15.01-2.26-22.71-6.29C6.03,210.89.23,204.55.01,199.45c-.34-7.83,6.22-20.79,15.43-20.18,8.14.54,22.14,4.26,30.67,6.15,17.62,3.91,35.5,8.57,52.96,13.04,17.95,4.59,67.69,21.89,82.51,20.5,7.84-.73,4.79-7.67.45-10.44-16.37-10.49-47.07-19.92-66.29-28.73-22.6-10.35-45.78-21.6-68.46-32.54-8.9-4.29-32.82-12.97-37.66-20.34-7.57-11.51,1.55-28.96,14.72-29.78,8.93,4.87,18.36,9.42,27.74,13.32,34.85,14.49,69.45,28.66,104.2,43.8,9.46,4.12,18.41,9.69,28.36,12.7,2.93-.07,4.79-8.92,4.23-11.22-.77-3.17-5.7-6.86-8.33-8.73-19.69-14.03-47.12-28.16-68.26-40.95-7.96-4.82-16.23-9.57-24.29-14.5-12.35-7.56-47.12-25.11-52.46-36.54-6.49-13.86,3.57-17.63,10.55-27.59,2.29-1.47,15.79,5.5,18.89,7.15,20.93,11.21,41.79,25.6,62.41,37.59,23.22,13.51,46.84,26.38,70.03,39.97,4.37,1.47,9.03,1.04,13.02-1.32,3.16-1.86,3.97-4.91,6.16-6.84,15.99-14.13,30.44-22.85,52.09-25.91,40.8-5.77,81.64-1.86,105.85,34.46Z"/><path d="M230.75,322.63c-40.68,38.67-81.28,78.54-121.23,118.28-16.98,16.89-36.27,40.26-53.91,55.08-1.64,1.38-3.27,2.78-5.2,3.76-14.72-7.64-1.9-13.34,4.22-19.74,55.08-57.63,112.59-114.44,170.92-169.08,4.22-3.95,18.59-13.74,18.36-19.18-.18-4.37-3.88-11.98-6.84-15.28-26.61-29.61-35.85-87.46-19.17-124.19,23.49-51.7,112.56-64.48,143.54-15.19,3.14,4.99,12.73,25.26,12.74,30.37,0,2.97-2.58,7.5-6.07,6.04-4.27-1.78-13.09-23.57-16.23-28.85-16.39-27.56-51.84-29.82-80.06-23.47-66.52,14.98-57.01,112.63-22.73,154.26,3.63,4.4,11.91,7.85,11.73,15.2-.14,6.01-16.51,17.8-21.26,22.28-3.16,2.98-6,7.03-8.8,9.7Z"/><path d="M800.66,461.38c3.89,3.6,25.5,22.54,26.27,25.3,1.15,4.09-4.79,7.3-7.95,6.77-4.17-.7-18.64-16.24-22.89-20-51.35-45.41-102.2-90.89-152-138-4.09-3.87-18.85-14.43-19.84-19.23-.84-4.06,6.94-13.76,11.32-8.25,54.58,51.82,109.94,102.4,165.08,153.41Z"/><path d="M334.77,152.28c6.7,5.91,4.28,17.71-.66,23.94-1.15,1.45-12.03,9.13-14.15,10.12-18.67,8.76-60.32,1.32-63.79-22.97-1.11-7.74.9-5.05,2.93-7.86,2.95-4.1,2.53-5.48,7.46-8.58,17.35-10.91,52.65-8.39,68.21,5.34ZM294.08,151.95c-31.95-1.54-33.38,20.3-2.01,23-3.16-9.11,1.62-14.64,2.01-23ZM304.72,153.08c-1.74.55-1.52,1.94-1.69,3.33-.23,1.9.79,16.28,1.25,17.85,2.67,9.2,28.54-4.64,18.3-15.3-2.58-2.69-14.42-7.03-17.85-5.88Z"/></g></svg>