<?xml version="1.0" encoding="UTF-8"?><svg id="b" xmlns="http://www.w3.org/2000/svg" viewBox="0 0 303.41 171.73"><defs><style>.d{fill:#f40000;}.e{fill:none;stroke:#000;}.f{fill:#e81010;}</style></defs><g id="c"><path class="f" d="M70.46,65.96c-.15,0-.25-.05-.34-.17-.04-.05-.14-.2-.42-.94-.23-.61-.39-1.05-.48-1.33L51.68,14.8c-1.26-3.33-2.14-5.59-2.7-6.89-.6-1.23-1.57-2.34-2.9-3.31-.79-.5-1.54-.89-2.26-1.19-.66-.28-1.2-.56-1.6-.85-.22-.12-.32-.24-.37-.4l-.03-.08-.05-.06s-.04-.07-.04-.12c.03-.03.05-.06.15-.06h15.73c.18,0,.36.06.56.19.22.2.33.38.37.48,0,.24-.18.45-.34.59-.3.27-.65.57-1.03.89-.45.38-.79.84-1,1.38-.15.37-.22.76-.22,1.16,0,.51.12,1.03.37,1.56l20.07,51.41,21.56-44.16c.43-.87.65-1.68.65-2.4,0-.65-.17-1.24-.5-1.75-.59-.94-1.53-2.17-2.77-3.67l-1.93-2.25,5.33-4.04c.18-.16.33-.22.49-.22.18,0,.43.12.7.35l3.77,3.86c.72.74,1.06,1.63,1.06,2.71,0,.62-.12,1.31-.35,2.03-.73,2.15-1.83,4.74-3.27,7.68l-22.73,47.13c-.19.47-.38.82-.55,1.06-.14.09-.27.14-.39.14h-7Z"/><path d="M99.21,1.5s.13.03.35.2l3.76,3.85c.62.65.93,1.42.93,2.37,0,.57-.11,1.2-.32,1.86-.72,2.14-1.82,4.71-3.25,7.63l-22.73,47.13v.03s-.02.03-.02.03c-.17.42-.32.69-.43.85-.02,0-.03.01-.04.01h-6.97s0,0,0,0c-.03-.06-.13-.26-.33-.79-.23-.6-.38-1.04-.48-1.33L52.14,14.62c-1.26-3.33-2.14-5.59-2.73-6.95-.63-1.29-1.65-2.46-3.05-3.48l-.03-.02-.03-.02c-.78-.49-1.55-.9-2.3-1.21-.48-.2-.88-.4-1.21-.61h14.81c.06,0,.14.03.23.08.08.07.13.13.17.17-.03.04-.07.08-.13.14-.3.27-.64.57-1.02.88-.51.43-.9.96-1.14,1.58-.17.43-.26.88-.26,1.35,0,.57.14,1.15.4,1.74l19.66,50.35.83,2.12,1-2.05,21.06-43.13c.47-.94.71-1.83.71-2.63,0-.75-.19-1.43-.57-2.02-.62-.97-1.54-2.19-2.82-3.73l-1.58-1.84,4.9-3.72.03-.02.03-.02c.05-.05.1-.08.13-.08M99.22.5c-.28,0-.54.11-.79.32l-5.75,4.36,2.27,2.64c1.24,1.48,2.15,2.69,2.74,3.62.28.43.42.93.42,1.48,0,.65-.2,1.38-.6,2.18l-21.06,43.14L56.77,7.88c-.22-.46-.32-.91-.32-1.35,0-.34.06-.66.19-.97.19-.46.47-.86.86-1.18.39-.32.73-.63,1.04-.9.34-.31.51-.62.51-.93,0-.06-.02-.14-.05-.23-.09-.22-.28-.45-.56-.7-.28-.19-.56-.28-.83-.28h-15.73c-.25,0-.43.09-.56.28-.06.09-.09.19-.09.28,0,.16.05.29.14.42.09.28.28.5.56.65.43.31,1,.61,1.69.9.7.29,1.41.67,2.16,1.14,1.27.93,2.18,1.96,2.74,3.11.56,1.3,1.45,3.59,2.69,6.87l17.53,48.71c.09.28.25.73.49,1.35.23.62.39.97.49,1.07.19.25.43.37.74.37h7c.25,0,.49-.09.74-.28.22-.28.43-.68.65-1.21l22.73-47.13c1.45-2.97,2.55-5.55,3.29-7.75.25-.77.37-1.5.37-2.18,0-1.21-.4-2.23-1.21-3.06l-3.8-3.9c-.37-.31-.71-.46-1.02-.46h0Z"/><path class="f" d="M126.07,66.84c-4.34,0-8.13-1.63-11.28-4.84-3.27-3.31-4.92-7.27-4.92-11.78v-.11c.02-4.96,1.92-9.19,5.64-12.57.4-.38,1.01-.71,1.81-.99.88-.31,2.19-.77,3.93-1.41,1.03-.37,2.17-.78,3.41-1.23,1.11-.38,2.02-.57,2.71-.57h.11c4.39.18,8.18,1.91,11.24,5.13,3.06,3.23,4.65,7.15,4.71,11.63v.2c0,4.53-1.62,8.4-4.81,11.53-3.26,3.17-7.3,4.85-12,4.99h-.56ZM126.32,34.71c-2.9,0-5.41,1.4-7.47,4.17-2.14,2.89-3.23,6.48-3.23,10.67s1.06,7.87,3.16,10.95c2.13,3.13,4.78,4.8,7.86,4.95h.52c2.87,0,5.37-1.4,7.43-4.17,2.12-2.87,3.19-6.44,3.19-10.63s-1.07-7.87-3.18-10.95c-2.15-3.13-4.78-4.81-7.84-4.98h-.45Z"/><path d="M127.46,33.85c4.33.18,7.9,1.81,10.9,4.98,2.97,3.14,4.51,6.94,4.58,11.28v.21c0,4.45-1.52,8.1-4.65,11.17-3.17,3.09-7.1,4.72-11.64,4.85h-.56c-4.26,0-7.83-1.53-10.92-4.69-3.21-3.26-4.77-7-4.77-11.43v-.1c.02-4.88,1.81-8.88,5.49-12.22.34-.32.89-.61,1.63-.87.86-.3,2.14-.76,3.93-1.41.08-.03.16-.06.24-.09-1.16.72-2.24,1.74-3.21,3.05-2.21,2.97-3.33,6.66-3.33,10.97s1.09,8.07,3.25,11.23c2.23,3.27,5,5.01,8.25,5.16h.02s.02,0,.02,0h.49c3.04,0,5.68-1.47,7.84-4.38,2.18-2.95,3.29-6.63,3.29-10.93s-1.1-8.07-3.27-11.24c-2.24-3.27-5-5.02-8.22-5.2h-.03s-.03,0-.03,0h-.42c-.39,0-.77.02-1.15.07.9-.28,1.64-.43,2.2-.43h.08M127.48,32.85h-.11c-.75,0-1.71.2-2.88.6-1.24.45-2.38.86-3.41,1.23-1.73.63-3.04,1.1-3.92,1.41-.88.3-1.54.67-1.99,1.09-3.84,3.49-5.78,7.8-5.8,12.94v.11c0,4.66,1.69,8.71,5.06,12.13,3.26,3.33,7.14,4.99,11.64,4.99h.56c4.85-.14,8.96-1.85,12.34-5.13,3.3-3.23,4.96-7.19,4.96-11.88v-.21c-.07-4.64-1.69-8.63-4.85-11.97s-7.03-5.1-11.6-5.29h0ZM126.67,64.95c-2.93-.14-5.42-1.72-7.47-4.73-2.05-3.01-3.08-6.57-3.08-10.67s1.04-7.56,3.13-10.37c1.97-2.65,4.32-3.97,7.07-3.97h.42c2.91.16,5.39,1.75,7.45,4.76,2.06,3.01,3.09,6.57,3.09,10.67s-1.03,7.55-3.09,10.34c-1.97,2.65-4.31,3.97-7.03,3.97h-.49Z"/><path class="f" d="M165.1,66.84c-4.22-.02-7.81-1.21-10.67-3.53-2.84-2.3-4.48-5.66-4.86-9.97-.09-1.01-.14-2.01-.14-2.98,0-1.24.08-2.46.24-3.62.29-1.98,1.07-4,2.32-5.99,1.31-2.1,3.16-3.84,5.5-5.17,2.34-1.34,5.09-2.08,8.16-2.22h.72c3.6,0,6.97.96,10.02,2.85l-.57,5.63h-.04s-.08-.11-.2-.39c-.98-2.14-2.29-3.7-3.9-4.66-1.57-.93-3.5-1.41-5.74-1.41h-.84c-2.69.15-4.8.94-6.29,2.35-1.3,1.27-2.26,2.82-2.87,4.59-.62,1.75-.94,3.73-.94,5.89,0,.72.04,1.45.11,2.19.24,3.56,1.23,6.53,2.94,8.83,2.25,3.03,4.82,4.77,7.64,5.19.46.07.95.11,1.44.11,2.18,0,4.62-.73,7.24-2.17,1.33-.72,1.98-.95,2.29-1.01-.04.19-.13.48-.35.96-.31.63-.68,1.13-1.07,1.49-1.27,1.13-2.85,1.93-4.7,2.36-1.9.45-3.73.67-5.44.67Z"/><path d="M166.36,33.85c3.4,0,6.59.88,9.49,2.61l-.37,3.69c-.95-1.68-2.13-2.96-3.55-3.8-1.65-.98-3.67-1.48-5.99-1.48h-.9c-2.79.15-5,.99-6.59,2.5-1.35,1.32-2.35,2.93-2.98,4.77-.65,1.81-.97,3.85-.97,6.07,0,.73.04,1.49.11,2.21.25,3.67,1.27,6.74,3.04,9.11,2.33,3.14,5.01,4.95,7.96,5.38.49.08,1.01.12,1.53.12,2.27,0,4.79-.75,7.47-2.23.5-.27.89-.47,1.2-.61-.28.53-.58.94-.91,1.23-1.2,1.08-2.71,1.83-4.48,2.25-1.86.44-3.65.66-5.32.66-4.11-.02-7.59-1.17-10.36-3.42-2.77-2.25-4.3-5.4-4.68-9.63-.09-1-.14-1.98-.14-2.93,0-1.21.08-2.41.24-3.55.28-1.91,1.04-3.87,2.25-5.8,1.26-2.03,3.05-3.71,5.32-5,2.28-1.3,4.94-2.02,7.89-2.15h.74M166.36,32.85h-.74c-3.16.14-5.96.9-8.38,2.29-2.43,1.38-4.32,3.16-5.68,5.34-1.29,2.06-2.09,4.13-2.39,6.19-.16,1.2-.25,2.43-.25,3.69,0,.98.05,1.99.14,3.02.4,4.48,2.08,7.92,5.04,10.32,2.96,2.4,6.63,3.62,10.99,3.64,1.76,0,3.61-.23,5.55-.69,1.95-.46,3.59-1.28,4.92-2.48.44-.4.84-.95,1.2-1.65.28-.61.42-1.05.42-1.34,0-.14-.02-.23-.07-.28-.07-.05-.16-.07-.28-.07-.47,0-1.37.36-2.71,1.09-2.55,1.41-4.89,2.11-7,2.11-.47,0-.93-.04-1.37-.11-2.7-.4-5.13-2.06-7.31-4.99-1.66-2.23-2.61-5.09-2.85-8.58-.07-.73-.11-1.44-.11-2.14,0-2.11.3-4.02.91-5.73.59-1.71,1.5-3.18,2.74-4.39,1.41-1.34,3.39-2.07,5.94-2.21h.84c2.16,0,3.98.45,5.48,1.34,1.52.91,2.75,2.39,3.69,4.43.19.45.4.68.63.7h.11c.26,0,.41-.15.46-.46l.6-5.94c-3.21-2.06-6.73-3.09-10.55-3.09h0Z"/><path class="f" d="M198.18,67.05c-5.95-.05-10.47-1.97-13.43-5.72-2.28-2.9-3.44-6.39-3.44-10.38,0-1.21.1-2.49.31-3.79.64-4.2,2.33-7.61,5.03-10.12,2.69-2.5,6.3-3.79,10.72-3.84h.14c4.45,0,7.89,1.27,10.22,3.78,2.34,2.56,3.52,5.96,3.52,10.1-.02.9-.06,1.56-.1,1.92h0s-.19.14-.94.14h-22.9v.51c.08,3.89,1.08,7.16,2.99,9.73,1.92,2.59,4.37,4.2,7.3,4.78.84.19,1.71.29,2.59.29,2.3,0,4.71-.67,7.16-1.99,1.44-.78,2.08-.98,2.37-1.02-.05.14-.14.44-.41.94-.35.69-.53.94-.61,1.02-.17.18-.33.34-.46.48-2.42,2.09-5.81,3.16-10.05,3.16ZM197.18,35.31c-3.47.1-6,1.38-7.51,3.82-1.47,2.36-2.26,5.04-2.36,7.95l-.02.52h19.54v-.5c0-2.93-.67-5.66-1.99-8.11-1.33-2.44-3.77-3.67-7.26-3.67h-.4Z"/><path d="M197.51,33.71c4.31,0,7.62,1.22,9.84,3.61,2.25,2.47,3.4,5.76,3.4,9.74-.02.67-.04,1.19-.07,1.56-.11.02-.26.03-.48.03h-23.41l.02,1.02c.07,3.99,1.11,7.36,3.08,10.02,1.99,2.69,4.55,4.36,7.58,4.97.89.2,1.8.31,2.72.31,2.38,0,4.87-.69,7.4-2.05.5-.27.9-.47,1.2-.61-.3.58-.43.74-.46.77-.16.17-.3.31-.43.44-2.35,2.02-5.63,3.04-9.72,3.04-5.88-.05-10.14-1.85-13.04-5.53-2.21-2.8-3.34-6.19-3.34-10.07,0-1.18.1-2.43.31-3.72.62-4.09,2.26-7.39,4.88-9.82,2.6-2.41,6.09-3.66,10.38-3.71h.14M186.77,48.09h20.56v-1c0-3.01-.69-5.82-2.06-8.35-1.43-2.61-4.02-3.93-7.7-3.93h-.42c-3.65.1-6.31,1.47-7.92,4.06-1.52,2.44-2.34,5.2-2.44,8.19l-.03,1.03M197.51,32.71h-.14c-4.57.05-8.26,1.37-11.06,3.97-2.8,2.6-4.53,6.07-5.19,10.41-.21,1.34-.32,2.62-.32,3.87,0,4.13,1.18,7.69,3.55,10.69,3.07,3.89,7.68,5.86,13.82,5.91,4.38,0,7.85-1.1,10.41-3.3.14-.14.3-.3.47-.49.18-.19.4-.56.69-1.12.3-.56.46-1,.46-1.3,0-.14-.04-.25-.11-.32-.07-.05-.16-.07-.28-.07-.47,0-1.37.36-2.71,1.09-2.39,1.29-4.7,1.93-6.93,1.93-.84,0-1.68-.09-2.5-.28-2.81-.56-5.15-2.09-7-4.59-1.85-2.5-2.81-5.64-2.88-9.44h22.39c.91,0,1.39-.19,1.44-.58.05-.39.08-1.05.11-1.99,0-4.29-1.22-7.77-3.66-10.44-2.44-2.62-5.96-3.94-10.58-3.94h0ZM187.81,47.09c.09-2.84.86-5.4,2.29-7.7,1.43-2.3,3.8-3.49,7.1-3.59h.39c3.3,0,5.58,1.14,6.82,3.41,1.29,2.39,1.93,5.02,1.93,7.88h-18.53Z"/><path class="f" d="M227.71,66.77c-2.73,0-5.38-.35-7.88-1.04l-2.71-7.37s.1-.67.1-.67c.01,0,.05,0,.12,0,0,.01.15.13.37.57,1.11,2.39,2.5,4.12,4.14,5.14,1.63,1.02,3.7,1.57,6.17,1.64h.44c1.72,0,3.62-.4,5.67-1.19,2.35-.92,3.59-2.61,3.69-5.02v-.23c0-2.77-1.33-4.55-3.95-5.3-2.48-.7-4.66-1.32-6.54-1.86-2.26-.62-4.41-1.61-6.4-2.96-1.89-1.27-2.8-3.11-2.8-5.63v-.18c.02-3.47,1.32-5.87,3.96-7.33,2.47-1.38,5.24-2.08,8.23-2.08.27,0,.54.01.8.03,3.26.18,6.37,1.15,9.28,2.89l-.7,5.83c0,.07-.03.1-.03.1h-.14s0,0,0,0c.04,0-.11-.07-.32-.54-.88-1.84-2.18-3.39-3.85-4.62-1.69-1.24-3.55-1.9-5.52-1.98h-.16c-1.53,0-3.04.39-4.49,1.15-1.58.82-2.57,2.09-2.93,3.78-.12.54-.19,1.05-.19,1.51,0,1.68.76,2.89,2.25,3.61,1.68.85,3.68,1.54,5.91,2.04,2.97.67,5.71,1.58,8.14,2.71,2.31,1.07,3.55,3.29,3.77,6.79v.32c0,1.61-.64,3.26-1.9,4.9-1.39,1.79-3.43,3.16-6.06,4.09-1.65.54-3.51.85-5.54.92h-.94Z"/><path d="M230.31,33.75c.25,0,.5.01.79.03,3.06.17,6,1.06,8.76,2.66l-.51,4.28c-.9-1.64-2.14-3.05-3.7-4.19-1.77-1.3-3.72-2-5.83-2.07h-.14c-1.61,0-3.2.41-4.71,1.2-1.73.89-2.8,2.28-3.19,4.11-.13.58-.2,1.13-.2,1.63,0,1.86.88,3.27,2.52,4.06,1.73.88,3.76,1.58,6.03,2.09,2.94.66,5.64,1.56,8.04,2.67,2.13.99,3.27,3.06,3.48,6.33v.32c0,1.5-.6,3.05-1.79,4.59-1.33,1.71-3.29,3.03-5.81,3.92-1.61.53-3.44.83-5.38.9h-.95c-2.6,0-5.12-.32-7.5-.95l-1.68-4.56c.89,1.33,1.91,2.35,3.04,3.06,1.7,1.06,3.86,1.64,6.45,1.72h.42c1.78,0,3.75-.41,5.85-1.23,2.51-.98,3.9-2.87,4.01-5.5v-.21c0-2.98-1.49-4.98-4.31-5.78-2.48-.7-4.66-1.32-6.55-1.87-2.2-.6-4.3-1.57-6.24-2.89-1.74-1.17-2.58-2.88-2.58-5.22v-.17c.02-3.27,1.23-5.53,3.71-6.9,2.39-1.34,5.08-2.02,7.98-2.02M230.31,32.75c-3.09,0-5.92.72-8.47,2.14-2.79,1.55-4.2,4.14-4.22,7.77v.18c0,2.67,1.01,4.69,3.02,6.05,2.04,1.38,4.22,2.39,6.54,3.02,1.88.54,4.05,1.16,6.54,1.86,2.39.68,3.59,2.29,3.59,4.82v.21c-.09,2.2-1.22,3.73-3.38,4.57-1.99.77-3.82,1.16-5.48,1.16h-.42c-2.39-.07-4.37-.59-5.92-1.56-1.56-.97-2.88-2.62-3.96-4.94-.26-.52-.5-.8-.74-.84h-.07c-.4,0-.61.18-.63.53l-.11.7,2.85,7.73c2.62.75,5.38,1.12,8.26,1.12h.95c2.09-.07,3.98-.39,5.7-.95,2.74-.96,4.84-2.38,6.29-4.25,1.34-1.73,2-3.47,2-5.2v-.35c-.23-3.66-1.59-6.06-4.06-7.21-2.47-1.15-5.22-2.06-8.24-2.74-2.2-.49-4.14-1.16-5.8-2-1.31-.63-1.97-1.69-1.97-3.16,0-.42.06-.89.18-1.41.33-1.55,1.22-2.69,2.67-3.45,1.38-.73,2.8-1.09,4.25-1.09h.14c1.88.07,3.62.7,5.24,1.88,1.62,1.18,2.85,2.65,3.69,4.41.23.54.49.82.77.84h.11c.33,0,.52-.18.56-.53l.74-6.15c-3.07-1.9-6.33-2.94-9.77-3.13-.28-.02-.56-.04-.84-.04h0Z"/><path class="e" d="M121.37,94.46c2.3.12,4.47.82,6.52,2.09l-.49,4.1c-.03.23-.16.35-.38.35h-.07c-.19-.02-.36-.2-.52-.56-.56-1.17-1.38-2.15-2.46-2.94s-2.24-1.21-3.49-1.25h-.09c-.97,0-1.91.24-2.84.73-.97.5-1.56,1.27-1.78,2.3-.08.34-.12.66-.12.94,0,.98.44,1.69,1.31,2.11,1.11.56,2.4,1.01,3.87,1.34,2.02.45,3.85,1.06,5.5,1.83s2.55,2.37,2.71,4.8v.23c0,1.16-.45,2.31-1.34,3.47-.97,1.25-2.37,2.2-4.2,2.84-1.14.38-2.41.59-3.8.63h-.63c-1.92,0-3.76-.25-5.51-.75l-1.9-5.16.07-.47c.02-.23.16-.35.42-.35h.05c.16.03.32.22.49.56.72,1.55,1.6,2.64,2.64,3.29s2.36,1,3.95,1.04h.28c1.11,0,2.33-.26,3.66-.77,1.44-.56,2.19-1.58,2.25-3.05v-.14c0-1.69-.8-2.76-2.39-3.21-1.66-.47-3.11-.88-4.36-1.24-1.55-.42-3-1.09-4.36-2.02-1.34-.91-2.02-2.25-2.02-4.03v-.12c.02-2.42.95-4.15,2.81-5.18,1.7-.95,3.59-1.43,5.65-1.43.19,0,.38,0,.56.02Z"/><path class="e" d="M139.79,113.49c0,1.02.39,1.66,1.17,1.93s1.17.61,1.17,1c0,.33-.16.49-.47.49h-7.95c-.33,0-.49-.16-.49-.49,0-.39.39-.72,1.17-1s1.17-.92,1.17-1.93v-15c0-.98-.39-1.62-1.17-1.9s-1.17-.62-1.17-1.03c0-.33.16-.49.49-.49,1.03-.05,2.05-.21,3.06-.48s2.01-.58,3.01-.93v19.83ZM137.68,84.1c1.7,0,2.55.86,2.55,2.58s-.85,2.6-2.55,2.6-2.55-.87-2.55-2.6.85-2.58,2.55-2.58Z"/><path class="e" d="M152.98,96.92c.86-.33,1.62-.62,2.27-.87s1.28-.48,1.88-.68c1.44-.5,2.93-.83,4.48-.98.19-.02.38-.02.59-.02,1.31,0,2.56.45,3.75,1.34,1.89,1.45,2.84,4.57,2.84,9.35v8.44c0,1.02.39,1.66,1.17,1.93s1.17.61,1.17,1c0,.33-.16.49-.47.49h-5.7c-.27,0-.4-.1-.4-.3v-11.55c0-3.42-.71-5.83-2.13-7.22-.91-.89-2.02-1.34-3.33-1.34-.75,0-1.57.15-2.46.45-.34.12-.78.29-1.3.48s-.97.36-1.35.5-.71.27-1.01.38v15.19c0,1.02.39,1.66,1.17,1.93s1.17.61,1.17,1c0,.33-.16.49-.47.49h-7.95c-.33,0-.49-.16-.49-.49,0-.39.39-.72,1.17-1s1.17-.92,1.17-1.93v-15c0-.98-.39-1.62-1.17-1.9s-1.17-.62-1.17-1.03c0-.33.16-.49.49-.49,1.03-.05,2.05-.21,3.06-.48s2.01-.58,3.01-.93v3.26Z"/><path class="d" d="M1.17,169.64c-.08,0-.12-.02-.13-.02h0s-.04-.05-.04-.22c0,0,.03-.16.5-.45.36-.24.78-.51,1.25-.81.55-.35,1-.82,1.34-1.4.29-.57.42-1.14.42-1.73v-39.06c0-2.18-1.14-3.04-2.09-3.37-.92-.32-1.42-.7-1.42-1.06,0-.22.02-.24.24-.24h32.12v8.54c0,.21-.02.24-.23.24.05,0-.21-.17-.89-1.19-1.19-1.64-2.23-2.93-3.09-3.83-.95-.99-2.21-1.49-3.75-1.49h-15.51v20.09h8.55c1.13,0,2.13-.5,2.98-1.47.45-.55.81-1.1,1.09-1.65.11-.23.29-.5.5-.5.17,0,.2,0,.2.24v8.93c0,.24-.04.24-.2.24-.27,0-.49-.34-.62-.62-.31-.64-.73-1.26-1.25-1.85-.77-.77-1.67-1.16-2.7-1.16h-8.55v19.2c0,.75.18,1.42.53,1.99.33.49.73.89,1.21,1.2.43.27.82.52,1.17.73.52.32.57.49.57.49,0,.05,0,.09,0,.12-.08.12-.15.12-.2.12H1.17Z"/><path d="M32.86,121.78v7.11c-.07-.1-.15-.21-.23-.33-1.19-1.65-2.25-2.95-3.13-3.87-1.05-1.09-2.43-1.64-4.11-1.64H9.38v21.09h9.05c1.28,0,2.41-.55,3.38-1.67.35-.42.65-.85.9-1.29v7.16c-.32-.59-.72-1.17-1.2-1.72l-.02-.03-.02-.02c-.85-.85-1.87-1.28-3.03-1.28h-9.05v19.7c0,.84.2,1.6.62,2.28.36.54.81.98,1.35,1.33.3.19.58.37.85.53H2.12c.27-.18.57-.37.9-.58.61-.39,1.12-.92,1.5-1.57l.02-.03.02-.03c.3-.61.46-1.25.46-1.92v-39.06c0-2.48-1.32-3.46-2.43-3.84-.34-.12-.57-.23-.74-.32h31.01M33.86,120.78H1.24c-.49,0-.74.25-.74.74,0,.61.59,1.12,1.76,1.53,1.17.41,1.76,1.38,1.76,2.9v39.06c0,.52-.12,1.01-.35,1.48-.3.52-.7.93-1.18,1.23-.48.3-.9.57-1.25.81-.49.3-.74.6-.74.88,0,.49.22.74.67.74h11.99c.28,0,.5-.14.67-.42.02-.07.04-.18.04-.32,0-.28-.27-.59-.81-.91-.35-.21-.74-.45-1.16-.72-.42-.27-.77-.62-1.05-1.04-.3-.49-.46-1.07-.46-1.72v-18.7h8.05c.89,0,1.66.33,2.32.98.49.56.88,1.14,1.18,1.74.29.6.65.9,1.07.9.47,0,.7-.25.7-.74v-8.93c0-.49-.23-.74-.7-.74-.38,0-.69.26-.95.77-.26.52-.6,1.03-1.02,1.55-.75.87-1.62,1.3-2.6,1.3h-8.05v-19.09h15.01c1.41,0,2.54.45,3.39,1.34.86.89,1.87,2.14,3.04,3.76.63.94,1.07,1.41,1.3,1.41.49,0,.74-.25.74-.74v-9.04h0Z"/><path class="d" d="M40.12,169.64c-.22,0-.24-.02-.24-.24,0-.33.52-.71,1.42-1.02.95-.33,2.09-1.19,2.09-3.37v-22.5c0-2.12-1.14-2.98-2.09-3.32-.92-.33-1.43-.71-1.43-1.08,0-.22.02-.24.24-.24,1.6-.07,3.18-.32,4.72-.74,1.29-.35,2.61-.74,3.92-1.18v4.67l5.56-2.12c1.78-.67,3.19-1.18,4.2-1.5.25-.08.57-.12.94-.12.73,0,1.66.19,2.77.55l-.7,7.98h-.78c-1.01-3.41-2.91-5.13-5.65-5.13-.27,0-.55.01-.82.04-1.97.23-3.39,1.24-4.22,3.01-.79,1.66-1.22,3.64-1.3,5.88v15.8c0,2.18,1.13,3.04,2.07,3.37.89.32,1.41.69,1.41,1.02,0,.24-.04.24-.2.24h-11.92Z"/><path d="M48.26,136.64v4.71l1.36-.52,4.88-1.86c1.77-.67,3.18-1.17,4.16-1.49.21-.06.48-.1.8-.1.59,0,1.35.14,2.24.41l-.61,7.01c-1.38-4.13-3.98-5.02-5.98-5.02-.28,0-.57.01-.89.04-2.14.25-3.69,1.36-4.6,3.29-.82,1.72-1.27,3.77-1.34,6.11v15.79c0,2.47,1.31,3.46,2.41,3.84.3.11.52.2.67.29h-10.55c.16-.09.38-.18.68-.29,1.11-.39,2.43-1.37,2.43-3.84v-22.5c0-2.41-1.32-3.39-2.42-3.79-.39-.14-.64-.27-.81-.37,1.44-.1,2.89-.34,4.3-.73,1.08-.29,2.19-.62,3.29-.97M49.26,135.26c-1.52.52-3.04.98-4.55,1.39-1.51.41-3.04.65-4.59.72-.49,0-.74.25-.74.74,0,.61.59,1.12,1.76,1.55,1.17.42,1.76,1.37,1.76,2.85v22.5c0,1.52-.59,2.49-1.76,2.9-1.17.41-1.76.91-1.76,1.49,0,.49.25.74.74.74h11.92c.47,0,.7-.25.7-.74,0-.59-.58-1.08-1.74-1.49-1.16-.41-1.74-1.38-1.74-2.9v-15.79c.07-2.18.49-4.07,1.25-5.68.76-1.6,2.03-2.51,3.81-2.72.26-.02.52-.04.77-.04,2.6,0,4.36,1.71,5.27,5.13h1.62l.77-8.82c-1.34-.47-2.44-.7-3.3-.7-.42,0-.79.05-1.09.14-1.01.33-2.41.83-4.22,1.51l-4.89,1.86v-4.64h0Z"/><path class="d" d="M83.19,170.52c-4.34,0-8.13-1.63-11.28-4.84-3.27-3.31-4.92-7.27-4.92-11.78v-.11c.02-4.96,1.92-9.19,5.64-12.57.4-.38,1.01-.71,1.81-.99.88-.31,2.19-.77,3.93-1.41,1.03-.37,2.17-.78,3.41-1.23,1.11-.38,2.02-.57,2.71-.57h.11c4.39.18,8.18,1.91,11.24,5.13,3.06,3.23,4.65,7.15,4.71,11.63v.2c0,4.53-1.62,8.4-4.81,11.53-3.26,3.17-7.3,4.85-12,4.99h-.56ZM83.43,138.38c-2.9,0-5.41,1.4-7.47,4.17-2.14,2.89-3.23,6.48-3.23,10.67s1.06,7.87,3.16,10.95c2.13,3.13,4.78,4.8,7.86,4.95h.52c2.87,0,5.37-1.4,7.43-4.17,2.12-2.87,3.19-6.44,3.19-10.63s-1.07-7.87-3.18-10.95c-2.15-3.13-4.78-4.81-7.84-4.98h-.45Z"/><path d="M84.57,137.53c4.33.18,7.9,1.81,10.9,4.98,2.97,3.14,4.51,6.94,4.58,11.28v.21c0,4.45-1.52,8.1-4.65,11.17-3.17,3.09-7.1,4.72-11.64,4.85h-.56c-4.26,0-7.83-1.53-10.92-4.69-3.21-3.26-4.77-7-4.77-11.43v-.1c.02-4.88,1.81-8.88,5.49-12.22.34-.32.89-.61,1.63-.87.86-.3,2.14-.76,3.93-1.41.08-.03.16-.06.24-.09-1.16.72-2.24,1.74-3.21,3.05-2.21,2.97-3.33,6.66-3.33,10.97s1.09,8.07,3.25,11.23c2.23,3.27,5,5.01,8.25,5.16h.02s.02,0,.02,0h.49c3.04,0,5.68-1.47,7.84-4.38,2.18-2.95,3.29-6.63,3.29-10.93s-1.1-8.07-3.27-11.24c-2.24-3.27-5-5.02-8.22-5.2h-.03s-.03,0-.03,0h-.42c-.39,0-.77.02-1.15.07.9-.28,1.64-.43,2.2-.43h.08M84.59,136.53h-.11c-.75,0-1.71.2-2.88.6-1.24.45-2.38.86-3.41,1.23-1.73.63-3.04,1.1-3.92,1.41-.88.3-1.54.67-1.99,1.09-3.84,3.49-5.78,7.8-5.8,12.94v.11c0,4.66,1.69,8.71,5.06,12.13,3.26,3.33,7.14,4.99,11.64,4.99h.56c4.85-.14,8.96-1.85,12.34-5.13,3.3-3.23,4.96-7.19,4.96-11.88v-.21c-.07-4.64-1.69-8.63-4.85-11.97s-7.03-5.1-11.6-5.29h0ZM83.79,168.63c-2.93-.14-5.42-1.72-7.47-4.73-2.05-3.01-3.08-6.57-3.08-10.67s1.04-7.56,3.13-10.37c1.97-2.65,4.32-3.97,7.07-3.97h.42c2.91.16,5.39,1.75,7.45,4.76,2.06,3.01,3.09,6.57,3.09,10.67s-1.03,7.55-3.09,10.34c-1.97,2.65-4.31,3.97-7.03,3.97h-.49Z"/><path class="d" d="M133.92,169.64c-.11,0-.16-.02-.16-.02l.06-17.27c0-5.25-1.13-9.01-3.35-11.19-1.45-1.42-3.25-2.15-5.34-2.15-1.17,0-2.47.23-3.85.69-.53.19-2.08.77-2.08.77l-3.74,1.39v23.13c0,2.18,1.14,3.04,2.09,3.37.9.32,1.42.69,1.42,1.02,0,.24-.04.24-.2.24h-11.92c-.22,0-.24-.02-.24-.24,0-.33.52-.71,1.42-1.02.95-.33,2.09-1.19,2.09-3.37v-22.5c0-2.12-1.14-2.98-2.09-3.32-.92-.33-1.43-.71-1.43-1.08,0-.22.02-.24.24-.24,1.6-.07,3.18-.32,4.72-.74,1.29-.35,2.59-.74,3.89-1.17v4.92l4.09-1.56c.98-.37,1.91-.71,2.8-1.01,2.11-.73,4.33-1.22,6.6-1.45.26-.02.54-.03.83-.03,1.85,0,3.64.64,5.33,1.9,2.69,2.07,4.05,6.65,4.05,13.63v12.66c0,2.18,1.14,3.04,2.09,3.37.9.32,1.42.69,1.42,1.02,0,.24-.04.24-.2.24h-8.54Z"/><path d="M114.95,136.65v28.36c0,2.48,1.32,3.46,2.43,3.84.3.1.52.2.68.29h-10.54c.16-.09.38-.18.68-.29,1.11-.39,2.43-1.37,2.43-3.84v-22.5c0-2.41-1.32-3.39-2.42-3.79-.39-.14-.64-.27-.81-.37,1.44-.1,2.89-.34,4.3-.73,1.08-.29,2.17-.62,3.26-.97M129.77,137.32c1.76,0,3.41.59,5.02,1.8,2.56,1.97,3.86,6.42,3.86,13.23v12.66c0,2.48,1.32,3.46,2.43,3.84.3.1.52.2.68.29h-7.43v-16.79c0-5.39-1.18-9.27-3.5-11.54-1.55-1.52-3.46-2.29-5.69-2.29-1.06,0-2.22.18-3.46.55.28-.1.56-.2.83-.29,2.07-.72,4.26-1.2,6.47-1.42.26-.02.53-.03.8-.03M115.95,135.26c-1.5.52-3.01.98-4.52,1.39-1.51.41-3.04.65-4.59.72-.49,0-.74.25-.74.74,0,.61.59,1.12,1.76,1.55,1.17.42,1.76,1.37,1.76,2.85v22.5c0,1.52-.59,2.49-1.76,2.9-1.17.41-1.76.91-1.76,1.49,0,.49.25.74.74.74h11.92c.47,0,.7-.25.7-.74,0-.59-.59-1.08-1.76-1.49-1.17-.41-1.76-1.38-1.76-2.9v-22.78c.44-.16.95-.35,1.51-.56s1.24-.46,2.02-.76c.79-.29,1.44-.53,1.95-.72,1.34-.44,2.57-.67,3.69-.67,1.97,0,3.63.67,4.99,2,2.13,2.09,3.2,5.7,3.2,10.83v17.33c0,.3.2.46.6.46h8.54c.47,0,.7-.25.7-.74,0-.59-.59-1.08-1.76-1.49-1.17-.41-1.76-1.38-1.76-2.9v-12.66c0-7.17-1.42-11.85-4.25-14.03-1.78-1.34-3.66-2-5.62-2-.3,0-.6.01-.88.04-2.32.23-4.56.73-6.71,1.48-.89.3-1.83.65-2.81,1.02-.98.38-2.12.81-3.41,1.3v-4.89h0Z"/><path class="d" d="M164.29,169.6c-3.22-.03-5.97-.35-8.19-.96-2.14-.59-3.22-3.04-3.22-7.29v-21.43h-.51c-.89.04-2.23.1-4.02.19h-.15c-.16,0-.19,0-.2-.23,0-.12,0-.29.38-.47.48-.21,1.44-.71,2.94-1.52.33-.18.65-.33.96-.47,0,0,.6,0,.6,0v-6.51c0-1.02.19-1.72.57-2.08.3-.29,1.1-.84,3.19-1.83.7-.34,1.09-.41,1.3-.41.19,0,.31,0,.31.41v10.32l8.88-.19s.05.14.05.41c0,.29-.04.66-.13,1.1-.24,1.11-.71,1.25-1.09,1.25l-7.71-.04v22.55c0,2.29.82,4.04,2.44,5.19,1.38.97,2.56,1.57,3.6,1.8v.21ZM167.11,137.13h0Z"/><path d="M157.74,127.11v10.72l1.02-.02,7.91-.17c0,.24-.05.55-.12.89-.18.86-.46.86-.6.86l-7.21-.04h-1s0,1,0,1v22.04c0,2.47.89,4.35,2.65,5.6.57.4,1.11.74,1.62,1.02-2.21-.13-4.15-.42-5.79-.87-1.89-.52-2.85-2.81-2.85-6.81v-21.94l-1.03.03c-.74.02-1.78.06-3.15.13.55-.28,1.33-.69,2.35-1.24.29-.15.57-.29.84-.41h.99v-7.01c0-1.2.29-1.6.41-1.72.22-.21.92-.72,3.07-1.74.43-.21.72-.3.89-.33M157.93,126.09c-.38,0-.88.15-1.51.46-1.73.82-2.84,1.46-3.32,1.92-.48.46-.72,1.27-.72,2.44v6.01c-.12,0-.21.01-.28.04-.33.14-.67.3-1.02.49-1.48.8-2.45,1.3-2.92,1.51-.45.21-.67.5-.67.88v.07c.02.47.26.7.7.7h.18c1.78-.09,3.12-.15,4.01-.18v20.92c0,4.52,1.2,7.11,3.59,7.77,2.39.66,5.33.98,8.82.98v-1.12c-1.05-.14-2.33-.74-3.81-1.79-1.49-1.05-2.23-2.65-2.23-4.78v-22.04l7.21.04c.82,0,1.35-.55,1.58-1.65.09-.47.14-.87.14-1.2,0-.61-.18-.91-.53-.91h-.04l-8.37.18v-9.81c0-.61-.27-.91-.81-.91h0Z"/><path class="d" d="M188.62,170.73c-5.95-.05-10.47-1.97-13.43-5.72-2.28-2.9-3.44-6.39-3.44-10.38,0-1.21.1-2.49.31-3.79.64-4.2,2.33-7.61,5.03-10.12,2.69-2.5,6.3-3.79,10.72-3.84h.14c4.45,0,7.89,1.27,10.22,3.78,2.34,2.56,3.52,5.96,3.52,10.1-.02.9-.06,1.56-.1,1.92h0s-.19.14-.94.14h-22.9v.51c.08,3.89,1.08,7.16,2.99,9.73,1.92,2.59,4.37,4.2,7.3,4.78.84.19,1.71.29,2.59.29,2.3,0,4.71-.67,7.16-1.99,1.44-.78,2.08-.98,2.37-1.02-.05.14-.14.44-.41.94-.35.69-.53.94-.61,1.02-.17.18-.33.34-.46.48-2.42,2.09-5.81,3.16-10.05,3.16ZM187.62,138.98c-3.47.1-6,1.38-7.51,3.82-1.47,2.36-2.26,5.04-2.36,7.95l-.02.52h19.54v-.5c0-2.93-.67-5.66-1.99-8.11-1.33-2.44-3.77-3.67-7.26-3.67h-.4Z"/><path d="M187.95,137.39c4.31,0,7.62,1.22,9.84,3.61,2.25,2.47,3.4,5.76,3.4,9.74-.02.67-.04,1.19-.07,1.56-.11.02-.26.03-.48.03h-23.41l.02,1.02c.07,3.99,1.11,7.36,3.08,10.02,1.99,2.69,4.55,4.36,7.58,4.97.89.2,1.8.31,2.72.31,2.38,0,4.87-.69,7.4-2.05.5-.27.9-.47,1.2-.61-.3.58-.43.74-.46.77-.16.17-.3.31-.43.44-2.35,2.02-5.63,3.04-9.72,3.04-5.88-.05-10.14-1.85-13.04-5.53-2.21-2.8-3.34-6.19-3.34-10.07,0-1.18.1-2.43.31-3.72.62-4.09,2.26-7.39,4.88-9.82,2.6-2.41,6.09-3.66,10.38-3.71h.14M177.22,151.77h20.56v-1c0-3.01-.69-5.82-2.06-8.35-1.43-2.61-4.02-3.93-7.7-3.93h-.42c-3.65.1-6.31,1.47-7.92,4.06-1.52,2.44-2.34,5.2-2.44,8.19l-.03,1.03M187.95,136.39h-.14c-4.57.05-8.26,1.37-11.06,3.97-2.8,2.6-4.53,6.07-5.19,10.41-.21,1.34-.32,2.62-.32,3.87,0,4.13,1.18,7.69,3.55,10.69,3.07,3.89,7.68,5.86,13.82,5.91,4.38,0,7.85-1.1,10.41-3.3.14-.14.3-.3.47-.49.18-.19.4-.56.69-1.12.3-.56.46-1,.46-1.3,0-.14-.04-.25-.11-.32-.07-.05-.16-.07-.28-.07-.47,0-1.37.36-2.71,1.09-2.39,1.29-4.7,1.93-6.93,1.93-.84,0-1.68-.09-2.5-.28-2.81-.56-5.15-2.09-7-4.59-1.85-2.5-2.81-5.64-2.88-9.44h22.39c.91,0,1.39-.19,1.44-.58.05-.39.08-1.05.11-1.99,0-4.29-1.22-7.77-3.66-10.44-2.44-2.62-5.96-3.94-10.58-3.94h0ZM178.25,150.77c.09-2.84.86-5.4,2.29-7.7,1.43-2.3,3.8-3.49,7.1-3.59h.39c3.3,0,5.58,1.14,6.82,3.41,1.29,2.39,1.93,5.02,1.93,7.88h-18.53Z"/><path class="d" d="M209.4,169.64c-.22,0-.24-.02-.24-.24,0-.33.52-.71,1.42-1.02.95-.33,2.09-1.19,2.09-3.37v-22.5c0-2.12-1.14-2.98-2.09-3.32-.92-.33-1.43-.71-1.43-1.08,0-.22.02-.24.24-.24,1.6-.07,3.18-.32,4.72-.74,1.29-.35,2.61-.74,3.92-1.18v4.67l5.56-2.12c1.78-.67,3.19-1.18,4.2-1.5.25-.08.57-.12.94-.12.73,0,1.66.19,2.77.55l-.7,7.98h-.78c-1.01-3.41-2.91-5.13-5.65-5.13-.27,0-.55.01-.82.04-1.97.23-3.39,1.24-4.22,3.01-.79,1.66-1.22,3.64-1.3,5.88v15.8c0,2.18,1.13,3.04,2.07,3.37.89.32,1.41.69,1.41,1.02,0,.24-.04.24-.2.24h-11.92Z"/><path d="M217.54,136.64v4.71l1.36-.52,4.88-1.86c1.77-.67,3.18-1.17,4.16-1.49.21-.06.48-.1.8-.1.59,0,1.35.14,2.24.41l-.61,7.01c-1.38-4.13-3.98-5.02-5.98-5.02-.28,0-.57.01-.89.04-2.14.25-3.69,1.36-4.6,3.29-.82,1.72-1.27,3.77-1.34,6.11v15.79c0,2.47,1.31,3.46,2.41,3.84.3.11.52.2.67.29h-10.55c.16-.09.38-.18.68-.29,1.11-.39,2.43-1.37,2.43-3.84v-22.5c0-2.41-1.32-3.39-2.42-3.79-.39-.14-.64-.27-.81-.37,1.44-.1,2.89-.34,4.3-.73,1.08-.29,2.19-.62,3.29-.97M218.54,135.26c-1.52.52-3.04.98-4.55,1.39-1.51.41-3.04.65-4.59.72-.49,0-.74.25-.74.74,0,.61.59,1.12,1.76,1.55,1.17.42,1.76,1.37,1.76,2.85v22.5c0,1.52-.59,2.49-1.76,2.9-1.17.41-1.76.91-1.76,1.49,0,.49.25.74.74.74h11.92c.47,0,.7-.25.7-.74,0-.59-.58-1.08-1.74-1.49-1.16-.41-1.74-1.38-1.74-2.9v-15.79c.07-2.18.49-4.07,1.25-5.68.76-1.6,2.03-2.51,3.81-2.72.26-.02.52-.04.77-.04,2.6,0,4.36,1.71,5.27,5.13h1.62l.77-8.82c-1.34-.47-2.44-.7-3.3-.7-.42,0-.79.05-1.09.14-1.01.33-2.41.83-4.22,1.51l-4.89,1.86v-4.64h0Z"/><path class="d" d="M248.63,170.52c-3.16-.16-5.94-1.48-8.25-3.92-2.32-2.46-3.66-5.53-3.98-9.12-.09-.97-.14-1.91-.14-2.8,0-1.19.08-2.36.24-3.48.27-1.91,1.03-3.86,2.25-5.78.58-.98,1.59-2.02,3.01-3.1.47-.32,1.02-.62,1.62-.89,1.85-.69,3.73-1.4,5.61-2.1,1.89-.7,3.78-1.41,5.68-2.11.34-.12.66-.18.95-.18h.18c1.43.07,3.22.44,5.3,1.1.14.05.24.09.29.11.55.23,1.19.46,1.95.73.37.11.7.17,1.01.17.48,0,.92-.14,1.28-.42.55-.47.92-.84,1.15-1.15.06-.02.1-.03.13-.03s.06,0,.09.02c.39.14.46.26.46.26v27.19c0,2.18,1.13,3.04,2.09,3.37.9.32,1.42.69,1.42,1.02,0,.22-.02.24-.24.24h-8.54c-.11,0-.16-.02-.16-.02l.06-2.54v-.72l-10.34,3.8c-.68.23-1.26.36-1.69.36h-1.44ZM253.48,138.91c-.53,0-1.07.11-1.59.32-.83.3-1.67.61-2.51.93-.83.32-1.66.63-2.51.93-.67.27-1.2.61-1.6,1.04-1.51,1.6-2.53,3.58-3.04,5.86-.4,1.69-.61,3.39-.61,5.07,0,.53.02,1.08.07,1.63.26,3.45,1.22,6.3,2.84,8.48,1.63,2.26,3.71,3.75,6.17,4.44.92.27,1.88.4,2.84.4.29,0,.6-.01.92-.04.57-.05,1.22-.21,1.96-.49.53-.19,1.38-.5,2.54-.93,1.15-.43,2.09-.79,2.82-1.07l.32-.12v-22.46l-.16-.15c-.99-.92-2.31-1.78-3.92-2.56-1.63-.79-3.1-1.21-4.38-1.26h-.16Z"/><path d="M255.78,137.53c1.4.07,3.13.43,5.15,1.07.12.05.21.08.24.1h.03s.03.03.03.03c.53.22,1.19.46,1.98.73.4.12.78.18,1.14.18.59,0,1.13-.17,1.58-.52l.03-.02.02-.02c.41-.35.74-.66.99-.95v26.87c0,2.48,1.32,3.46,2.43,3.84.3.1.52.2.68.29h-7.47v-26.47l-.32-.3c-1.03-.95-2.39-1.84-4.04-2.64-1.69-.82-3.23-1.26-4.62-1.31h-.14c-.27,0-.54.02-.81.07.72-.27,1.44-.53,2.16-.8.29-.1.56-.15.79-.15h.15M245.9,141.01c-.38.22-.7.48-.98.77-1.57,1.67-2.64,3.72-3.16,6.08-.41,1.73-.63,3.48-.63,5.19,0,.55.02,1.11.07,1.66.27,3.55,1.26,6.49,2.93,8.73,1.7,2.36,3.87,3.92,6.44,4.63.98.28,1.98.43,2.99.43.31,0,.63-.01.97-.04.23-.02.47-.06.72-.11l-3.63,1.33c-.8.27-1.28.33-1.54.33h-1.39c-3.09-.15-5.69-1.38-7.94-3.77-2.24-2.37-3.54-5.34-3.84-8.83-.09-.95-.14-1.87-.14-2.75,0-1.17.08-2.31.24-3.41.26-1.84.99-3.72,2.19-5.61.54-.91,1.5-1.9,2.85-2.93.45-.3.96-.59,1.52-.84.78-.29,1.55-.58,2.33-.87M255.8,136.53h-.18c-.35,0-.73.07-1.12.21-1.9.7-3.79,1.41-5.68,2.11-1.89.7-3.77,1.41-5.64,2.11-.63.28-1.21.6-1.72.95-1.48,1.12-2.52,2.2-3.13,3.23-1.27,1.99-2.04,3.98-2.32,5.98-.16,1.15-.25,2.33-.25,3.55,0,.91.05,1.86.14,2.85.33,3.73,1.7,6.87,4.11,9.42,2.41,2.55,5.29,3.91,8.61,4.08h1.44c.49,0,1.11-.13,1.86-.39l9.67-3.55v2.6c0,.3.2.46.6.46h8.54c.49,0,.74-.25.74-.74,0-.59-.59-1.08-1.76-1.49-1.17-.41-1.76-1.38-1.76-2.9v-27.21c0-.28-.26-.52-.77-.7-.12-.05-.23-.07-.35-.07-.19,0-.34.08-.46.25-.21.28-.56.63-1.05,1.05-.28.21-.61.32-.98.32-.26,0-.54-.05-.84-.14-.75-.26-1.38-.49-1.9-.7-.05-.02-.16-.07-.35-.14-2.13-.68-3.95-1.05-5.45-1.12h0ZM253.55,167.5c-.91,0-1.82-.13-2.71-.39-2.37-.66-4.34-2.07-5.91-4.25-1.57-2.11-2.48-4.85-2.74-8.23-.05-.54-.07-1.07-.07-1.58,0-1.64.2-3.29.6-4.96.49-2.2,1.46-4.08,2.92-5.62.35-.37.82-.68,1.41-.91.84-.3,1.68-.62,2.51-.93.83-.32,1.67-.63,2.51-.93.47-.19.94-.28,1.41-.28h.14c1.22.05,2.61.45,4.18,1.21,1.57.76,2.84,1.59,3.8,2.48v21.9c-.73.28-1.66.64-2.81,1.07-1.15.43-1.99.74-2.53.93-.7.26-1.31.41-1.83.46-.3.02-.6.04-.88.04h0Z"/><path class="d" d="M287.97,170.45c-2.73,0-5.38-.35-7.88-1.04l-2.71-7.37s.1-.67.1-.67c.01,0,.05,0,.12,0,0,.01.15.13.37.57,1.11,2.39,2.5,4.12,4.14,5.14,1.63,1.02,3.7,1.57,6.17,1.64h.44c1.72,0,3.62-.4,5.67-1.19,2.35-.92,3.59-2.61,3.69-5.02v-.23c0-2.77-1.33-4.55-3.95-5.3-2.48-.7-4.66-1.32-6.54-1.86-2.26-.62-4.41-1.61-6.4-2.96-1.89-1.27-2.8-3.11-2.8-5.63v-.18c.02-3.47,1.32-5.87,3.96-7.33,2.47-1.38,5.24-2.08,8.23-2.08.27,0,.54.01.8.03,3.26.18,6.37,1.15,9.28,2.89l-.7,5.83c0,.07-.03.1-.03.1h-.14s0,0,0,0c.04,0-.11-.07-.32-.54-.88-1.84-2.18-3.39-3.85-4.62-1.69-1.24-3.55-1.9-5.52-1.98h-.16c-1.53,0-3.04.39-4.49,1.15-1.58.82-2.57,2.09-2.93,3.78-.12.54-.19,1.05-.19,1.51,0,1.68.76,2.89,2.25,3.61,1.68.85,3.68,1.54,5.91,2.04,2.97.67,5.71,1.58,8.14,2.71,2.31,1.07,3.55,3.29,3.77,6.79v.32c0,1.61-.64,3.26-1.9,4.9-1.39,1.79-3.43,3.16-6.06,4.09-1.65.54-3.51.85-5.54.92h-.94Z"/><path d="M290.57,137.42c.25,0,.5.01.79.03,3.06.17,6,1.06,8.76,2.66l-.51,4.28c-.9-1.64-2.14-3.05-3.7-4.19-1.77-1.3-3.72-2-5.83-2.07h-.14c-1.61,0-3.2.41-4.71,1.2-1.73.89-2.8,2.28-3.19,4.11-.13.58-.2,1.13-.2,1.63,0,1.86.88,3.27,2.52,4.06,1.73.88,3.76,1.58,6.03,2.09,2.94.66,5.64,1.56,8.04,2.67,2.13.99,3.27,3.06,3.48,6.33v.32c0,1.5-.6,3.05-1.79,4.59-1.33,1.71-3.29,3.03-5.81,3.92-1.61.53-3.44.83-5.38.9h-.95c-2.6,0-5.12-.32-7.5-.95l-1.68-4.56c.89,1.33,1.91,2.35,3.04,3.06,1.7,1.06,3.86,1.64,6.45,1.72h.42c1.78,0,3.75-.41,5.85-1.23,2.51-.98,3.9-2.87,4.01-5.5v-.21c0-2.98-1.49-4.98-4.31-5.78-2.48-.7-4.66-1.32-6.55-1.87-2.2-.6-4.3-1.57-6.24-2.89-1.74-1.17-2.58-2.88-2.58-5.22v-.17c.02-3.27,1.23-5.53,3.71-6.9,2.39-1.34,5.08-2.02,7.98-2.02M290.57,136.42c-3.09,0-5.92.72-8.47,2.14-2.79,1.55-4.2,4.14-4.22,7.77v.18c0,2.67,1.01,4.69,3.02,6.05,2.04,1.38,4.22,2.39,6.54,3.02,1.88.54,4.05,1.16,6.54,1.86,2.39.68,3.59,2.29,3.59,4.82v.21c-.09,2.2-1.22,3.73-3.38,4.57-1.99.77-3.82,1.16-5.48,1.16h-.42c-2.39-.07-4.37-.59-5.92-1.56-1.56-.97-2.88-2.62-3.96-4.94-.26-.52-.5-.8-.74-.84h-.07c-.4,0-.61.18-.63.53l-.11.7,2.85,7.73c2.62.75,5.38,1.12,8.26,1.12h.95c2.09-.07,3.98-.39,5.7-.95,2.74-.96,4.84-2.38,6.29-4.25,1.34-1.73,2-3.47,2-5.2v-.35c-.23-3.66-1.59-6.06-4.06-7.21-2.47-1.15-5.22-2.06-8.24-2.74-2.2-.49-4.14-1.16-5.8-2-1.31-.63-1.97-1.69-1.97-3.16,0-.42.06-.89.18-1.41.33-1.55,1.22-2.69,2.67-3.45,1.38-.73,2.8-1.09,4.25-1.09h.14c1.88.07,3.62.7,5.24,1.88,1.62,1.18,2.85,2.65,3.69,4.41.23.54.49.82.77.84h.11c.33,0,.52-.18.56-.53l.74-6.15c-3.07-1.9-6.33-2.94-9.77-3.13-.28-.02-.56-.04-.84-.04h0Z"/></g></svg>