<?xml version="1.0" encoding="UTF-8"?><svg id="b" xmlns="http://www.w3.org/2000/svg" viewBox="0 0 302.41 170.73"><g id="c"><path d="M56.27,7.38l19.67,50.38,21.06-43.14c.4-.8.6-1.53.6-2.18,0-.56-.14-1.05-.42-1.48-.59-.93-1.5-2.13-2.74-3.62l-2.27-2.64,5.75-4.36c.25-.22.51-.32.79-.32.31,0,.65.16,1.02.46l3.8,3.9c.8.83,1.21,1.86,1.21,3.06,0,.68-.12,1.41-.37,2.18-.74,2.2-1.84,4.78-3.29,7.75l-22.73,47.13c-.22.53-.43.93-.65,1.21-.25.19-.5.28-.74.28h-7c-.31,0-.56-.12-.74-.37-.09-.09-.26-.45-.49-1.07-.23-.62-.39-1.07-.49-1.35L50.71,14.47c-1.24-3.28-2.13-5.57-2.69-6.87-.56-1.14-1.47-2.18-2.74-3.11-.74-.46-1.46-.84-2.16-1.14-.7-.29-1.26-.6-1.69-.9-.28-.15-.46-.37-.56-.65-.09-.12-.14-.26-.14-.42,0-.09.03-.19.09-.28.12-.19.31-.28.56-.28h15.73c.28,0,.56.09.83.28.28.25.46.48.56.7.03.09.05.17.05.23,0,.31-.17.62-.51.93-.31.28-.66.58-1.04.9-.39.33-.67.72-.86,1.18-.12.31-.19.63-.19.97,0,.43.11.88.32,1.35Z"/><path d="M126.98,32.35c4.57.19,8.44,1.95,11.6,5.29s4.78,7.33,4.85,11.97v.21c0,4.69-1.65,8.65-4.96,11.88-3.38,3.28-7.49,4.99-12.34,5.13h-.56c-4.5,0-8.38-1.66-11.64-4.99-3.38-3.42-5.06-7.46-5.06-12.13v-.11c.02-5.13,1.96-9.44,5.8-12.94.44-.42,1.11-.79,1.99-1.09.88-.3,2.19-.77,3.92-1.41,1.03-.37,2.17-.79,3.41-1.23,1.17-.4,2.13-.6,2.88-.6h.11ZM126.24,34.71h-.42c-2.74,0-5.1,1.32-7.07,3.97-2.09,2.81-3.13,6.27-3.13,10.37s1.02,7.66,3.08,10.67c2.05,3.01,4.54,4.59,7.47,4.73h.49c2.72,0,5.06-1.32,7.03-3.97,2.06-2.79,3.09-6.23,3.09-10.34s-1.03-7.66-3.09-10.67c-2.06-3.01-4.55-4.6-7.45-4.76Z"/><path d="M165.12,32.35h.74c3.82,0,7.34,1.03,10.55,3.09l-.6,5.94c-.05.3-.2.46-.46.46h-.11c-.23-.02-.45-.26-.63-.7-.94-2.04-2.17-3.52-3.69-4.43-1.5-.89-3.33-1.34-5.48-1.34h-.84c-2.55.14-4.54.88-5.94,2.21-1.24,1.22-2.16,2.68-2.74,4.39-.61,1.71-.91,3.62-.91,5.73,0,.7.04,1.42.11,2.14.23,3.49,1.18,6.35,2.85,8.58,2.18,2.93,4.62,4.59,7.31,4.99.44.07.9.11,1.37.11,2.11,0,4.44-.7,7-2.11,1.34-.73,2.24-1.09,2.71-1.09.12,0,.21.02.28.07.05.05.07.14.07.28,0,.28-.14.73-.42,1.34-.35.7-.75,1.25-1.2,1.65-1.34,1.2-2.98,2.02-4.92,2.48-1.95.46-3.8.69-5.55.69-4.36-.02-8.02-1.24-10.99-3.64-2.97-2.4-4.65-5.84-5.04-10.32-.09-1.03-.14-2.04-.14-3.02,0-1.27.08-2.5.25-3.69.3-2.06,1.1-4.12,2.39-6.19,1.36-2.18,3.25-3.96,5.68-5.34,2.43-1.38,5.22-2.14,8.38-2.29Z"/><path d="M180.63,46.59c.66-4.34,2.38-7.8,5.19-10.41,2.8-2.6,6.49-3.93,11.06-3.97h.14c4.62,0,8.14,1.31,10.58,3.94,2.44,2.67,3.66,6.15,3.66,10.44-.02.94-.06,1.6-.11,1.99-.05.39-.53.58-1.44.58h-22.39c.07,3.8,1.03,6.94,2.88,9.44,1.85,2.5,4.18,4.03,7,4.59.82.19,1.65.28,2.5.28,2.23,0,4.54-.64,6.93-1.93,1.34-.73,2.24-1.09,2.71-1.09.12,0,.21.02.28.07.07.07.11.18.11.32,0,.3-.15.74-.46,1.3-.28.56-.51.94-.69,1.12-.18.19-.33.35-.47.49-2.55,2.2-6.02,3.3-10.41,3.3-6.14-.05-10.75-2.02-13.82-5.91-2.37-3-3.55-6.56-3.55-10.69,0-1.24.11-2.53.32-3.87ZM187.31,46.59h18.53c0-2.86-.65-5.48-1.93-7.88-1.24-2.27-3.52-3.41-6.82-3.41h-.39c-3.3.09-5.67,1.29-7.1,3.59-1.43,2.3-2.19,4.86-2.29,7.7Z"/><path d="M230.65,32.28c3.45.19,6.7,1.23,9.77,3.13l-.74,6.15c-.05.35-.23.53-.56.53h-.11c-.28-.02-.54-.3-.77-.84-.84-1.76-2.07-3.23-3.69-4.41-1.62-1.18-3.36-1.81-5.24-1.88h-.14c-1.45,0-2.87.36-4.25,1.09-1.45.75-2.34,1.9-2.67,3.45-.12.52-.18.98-.18,1.41,0,1.48.66,2.53,1.97,3.16,1.66.84,3.6,1.51,5.8,2,3.02.68,5.77,1.59,8.24,2.74,2.47,1.15,3.83,3.55,4.06,7.21v.35c0,1.73-.67,3.47-2,5.2-1.45,1.88-3.55,3.29-6.29,4.25-1.71.56-3.61.88-5.7.95h-.95c-2.88,0-5.64-.38-8.26-1.12l-2.85-7.73.11-.7c.02-.35.23-.53.63-.53h.07c.23.05.48.33.74.84,1.08,2.32,2.4,3.97,3.96,4.94,1.56.97,3.53,1.49,5.92,1.56h.42c1.66,0,3.49-.39,5.48-1.16,2.16-.84,3.28-2.37,3.38-4.57v-.21c0-2.53-1.2-4.14-3.59-4.82-2.48-.7-4.66-1.32-6.54-1.86-2.32-.63-4.5-1.64-6.54-3.02-2.02-1.36-3.02-3.38-3.02-6.05v-.18c.02-3.63,1.43-6.22,4.22-7.77,2.55-1.43,5.38-2.14,8.47-2.14.28,0,.56.01.84.04Z"/><path d="M125.87,90.96c2.3.12,4.47.82,6.52,2.09l-.49,4.1c-.03.23-.16.35-.38.35h-.07c-.19-.02-.36-.2-.52-.56-.56-1.17-1.38-2.15-2.46-2.94s-2.24-1.21-3.49-1.25h-.09c-.97,0-1.91.24-2.84.73-.97.5-1.56,1.27-1.78,2.3-.08.34-.12.66-.12.94,0,.98.44,1.69,1.31,2.11,1.11.56,2.4,1.01,3.87,1.34,2.02.45,3.85,1.06,5.5,1.83s2.55,2.37,2.71,4.8v.23c0,1.16-.45,2.31-1.34,3.47-.97,1.25-2.37,2.2-4.2,2.84-1.14.38-2.41.59-3.8.63h-.63c-1.92,0-3.76-.25-5.51-.75l-1.9-5.16.07-.47c.02-.23.16-.35.42-.35h.05c.16.03.32.22.49.56.72,1.55,1.6,2.64,2.64,3.29s2.36,1,3.95,1.04h.28c1.11,0,2.33-.26,3.66-.77,1.44-.56,2.19-1.58,2.25-3.05v-.14c0-1.69-.8-2.76-2.39-3.21-1.66-.47-3.11-.88-4.36-1.24-1.55-.42-3-1.09-4.36-2.02-1.34-.91-2.02-2.25-2.02-4.03v-.12c.02-2.42.95-4.15,2.81-5.18,1.7-.95,3.59-1.43,5.65-1.43.19,0,.38,0,.56.02Z"/><path d="M144.29,109.99c0,1.02.39,1.66,1.17,1.93s1.17.61,1.17,1c0,.33-.16.49-.47.49h-7.95c-.33,0-.49-.16-.49-.49,0-.39.39-.72,1.17-1s1.17-.92,1.17-1.93v-15c0-.98-.39-1.62-1.17-1.9s-1.17-.62-1.17-1.03c0-.33.16-.49.49-.49,1.03-.05,2.05-.21,3.06-.48s2.01-.58,3.01-.93v19.83ZM142.18,80.6c1.7,0,2.55.86,2.55,2.58s-.85,2.6-2.55,2.6-2.55-.87-2.55-2.6.85-2.58,2.55-2.58Z"/><path d="M157.48,93.42c.86-.33,1.62-.62,2.27-.87s1.28-.48,1.88-.68c1.44-.5,2.93-.83,4.48-.98.19-.02.38-.02.59-.02,1.31,0,2.56.45,3.75,1.34,1.89,1.45,2.84,4.57,2.84,9.35v8.44c0,1.02.39,1.66,1.17,1.93s1.17.61,1.17,1c0,.33-.16.49-.47.49h-5.7c-.27,0-.4-.1-.4-.3v-11.55c0-3.42-.71-5.83-2.13-7.22-.91-.89-2.02-1.34-3.33-1.34-.75,0-1.57.15-2.46.45-.34.12-.78.29-1.3.48s-.97.36-1.35.5-.71.27-1.01.38v15.19c0,1.02.39,1.66,1.17,1.93s1.17.61,1.17,1c0,.33-.16.49-.47.49h-7.95c-.33,0-.49-.16-.49-.49,0-.39.39-.72,1.17-1s1.17-.92,1.17-1.93v-15c0-.98-.39-1.62-1.17-1.9s-1.17-.62-1.17-1.03c0-.33.16-.49.49-.49,1.03-.05,2.05-.21,3.06-.48s2.01-.58,3.01-.93v3.26Z"/><path d="M.67,169.64c-.45,0-.67-.25-.67-.74,0-.28.25-.57.74-.88.35-.23.77-.5,1.25-.81.48-.3.87-.71,1.18-1.23.23-.47.35-.96.35-1.48v-39.06c0-1.52-.59-2.49-1.76-2.9-1.17-.41-1.76-.92-1.76-1.53,0-.49.25-.74.74-.74h32.62v9.04c0,.49-.25.74-.74.74-.23,0-.67-.47-1.3-1.41-1.17-1.62-2.19-2.87-3.04-3.76-.86-.89-1.99-1.34-3.39-1.34h-15.01v19.09h8.05c.98,0,1.85-.43,2.6-1.3.42-.52.76-1.03,1.02-1.55.26-.52.57-.77.95-.77.47,0,.7.25.7.74v8.93c0,.49-.23.74-.7.74-.42,0-.78-.3-1.07-.9-.29-.6-.69-1.18-1.18-1.74-.66-.66-1.43-.98-2.32-.98h-8.05v18.7c0,.66.15,1.23.46,1.72.28.42.63.77,1.05,1.04.42.27.81.51,1.16.72.54.33.81.63.81.91,0,.14-.01.25-.04.32-.16.28-.39.42-.67.42H.67Z"/><path d="M48.76,148.72v15.79c0,1.52.58,2.49,1.74,2.9,1.16.41,1.74.91,1.74,1.49,0,.49-.23.74-.7.74h-11.92c-.49,0-.74-.25-.74-.74,0-.59.59-1.08,1.76-1.49,1.17-.41,1.76-1.38,1.76-2.9v-22.5c0-1.48-.59-2.43-1.76-2.85-1.17-.42-1.76-.94-1.76-1.55,0-.49.25-.74.74-.74,1.55-.07,3.08-.31,4.59-.72,1.51-.41,3.03-.87,4.55-1.39v4.64l4.89-1.86c1.8-.68,3.21-1.18,4.22-1.51.3-.09.67-.14,1.09-.14.87,0,1.97.23,3.3.7l-.77,8.82h-1.62c-.91-3.42-2.67-5.13-5.27-5.13-.26,0-.52.01-.77.04-1.78.21-3.05,1.12-3.81,2.72-.76,1.61-1.18,3.5-1.25,5.68Z"/><path d="M84.09,136.03c4.57.19,8.44,1.95,11.6,5.29s4.78,7.33,4.85,11.97v.21c0,4.69-1.65,8.65-4.96,11.88-3.38,3.28-7.49,4.99-12.34,5.13h-.56c-4.5,0-8.38-1.66-11.64-4.99-3.38-3.42-5.06-7.46-5.06-12.13v-.11c.02-5.13,1.96-9.44,5.8-12.94.44-.42,1.11-.79,1.99-1.09.88-.3,2.19-.77,3.92-1.41,1.03-.37,2.17-.79,3.41-1.23,1.17-.4,2.13-.6,2.88-.6h.11ZM83.36,138.38h-.42c-2.74,0-5.1,1.32-7.07,3.97-2.09,2.81-3.13,6.27-3.13,10.37s1.02,7.66,3.08,10.67c2.05,3.01,4.54,4.59,7.47,4.73h.49c2.72,0,5.06-1.32,7.03-3.97,2.06-2.79,3.09-6.23,3.09-10.34s-1.03-7.66-3.09-10.67c-2.06-3.01-4.55-4.6-7.45-4.76Z"/><path d="M115.45,139.65c1.29-.49,2.43-.93,3.41-1.3.98-.37,1.92-.71,2.81-1.02,2.16-.75,4.39-1.24,6.71-1.48.28-.02.57-.04.88-.04,1.97,0,3.84.67,5.62,2,2.84,2.18,4.25,6.86,4.25,14.03v12.66c0,1.52.59,2.49,1.76,2.9,1.17.41,1.76.91,1.76,1.49,0,.49-.23.74-.7.74h-8.54c-.4,0-.6-.15-.6-.46v-17.33c0-5.13-1.07-8.74-3.2-10.83-1.36-1.34-3.02-2-4.99-2-1.12,0-2.36.22-3.69.67-.52.19-1.17.43-1.95.72-.79.29-1.46.54-2.02.76s-1.07.4-1.51.56v22.78c0,1.52.59,2.49,1.76,2.9,1.17.41,1.76.91,1.76,1.49,0,.49-.23.74-.7.74h-11.92c-.49,0-.74-.25-.74-.74,0-.59.59-1.08,1.76-1.49,1.17-.41,1.76-1.38,1.76-2.9v-22.5c0-1.48-.59-2.43-1.76-2.85-1.17-.42-1.76-.94-1.76-1.55,0-.49.25-.74.74-.74,1.55-.07,3.08-.31,4.59-.72,1.51-.41,3.02-.87,4.52-1.39v4.89Z"/><path d="M151.88,139.93c-.89.02-2.23.08-4.01.18h-.18c-.45,0-.68-.23-.7-.7v-.07c0-.37.22-.67.67-.88.47-.21,1.44-.71,2.92-1.51.35-.19.69-.35,1.02-.49.07-.02.16-.04.28-.04v-6.01c0-1.17.24-1.99.72-2.44.48-.46,1.59-1.1,3.32-1.92.63-.3,1.14-.46,1.51-.46.54,0,.81.3.81.91v9.81l8.37-.18h.04c.35,0,.53.3.53.91,0,.33-.05.73-.14,1.2-.23,1.1-.76,1.65-1.58,1.65l-7.21-.04v22.04c0,2.13.74,3.73,2.23,4.78,1.49,1.05,2.76,1.65,3.81,1.79v1.12c-3.49,0-6.43-.33-8.82-.98-2.39-.66-3.59-3.25-3.59-7.77v-20.92Z"/><path d="M171.07,150.27c.66-4.34,2.38-7.8,5.19-10.41,2.8-2.6,6.49-3.93,11.06-3.97h.14c4.62,0,8.14,1.31,10.58,3.94,2.44,2.67,3.66,6.15,3.66,10.44-.02.94-.06,1.6-.11,1.99-.05.39-.53.58-1.44.58h-22.39c.07,3.8,1.03,6.94,2.88,9.44,1.85,2.5,4.18,4.03,7,4.59.82.19,1.65.28,2.5.28,2.23,0,4.54-.64,6.93-1.93,1.34-.73,2.24-1.09,2.71-1.09.12,0,.21.02.28.07.07.07.11.18.11.32,0,.3-.15.74-.46,1.3-.28.56-.51.94-.69,1.12-.18.19-.33.35-.47.49-2.55,2.2-6.02,3.3-10.41,3.3-6.14-.05-10.75-2.02-13.82-5.91-2.37-3-3.55-6.56-3.55-10.69,0-1.24.11-2.53.32-3.87ZM177.75,150.27h18.53c0-2.86-.65-5.48-1.93-7.88-1.24-2.27-3.52-3.41-6.82-3.41h-.39c-3.3.09-5.67,1.29-7.1,3.59-1.43,2.3-2.19,4.86-2.29,7.7Z"/><path d="M218.04,148.72v15.79c0,1.52.58,2.49,1.74,2.9,1.16.41,1.74.91,1.74,1.49,0,.49-.23.74-.7.74h-11.92c-.49,0-.74-.25-.74-.74,0-.59.59-1.08,1.76-1.49,1.17-.41,1.76-1.38,1.76-2.9v-22.5c0-1.48-.59-2.43-1.76-2.85-1.17-.42-1.76-.94-1.76-1.55,0-.49.25-.74.74-.74,1.55-.07,3.08-.31,4.59-.72,1.51-.41,3.03-.87,4.55-1.39v4.64l4.89-1.86c1.8-.68,3.21-1.18,4.22-1.51.3-.09.67-.14,1.09-.14.87,0,1.97.23,3.3.7l-.77,8.82h-1.62c-.91-3.42-2.67-5.13-5.27-5.13-.26,0-.52.01-.77.04-1.78.21-3.05,1.12-3.81,2.72-.76,1.61-1.18,3.5-1.25,5.68Z"/><path d="M261.11,166.58l-9.67,3.55c-.75.26-1.37.39-1.86.39h-1.44c-3.33-.16-6.2-1.52-8.61-4.08-2.41-2.55-3.79-5.7-4.11-9.42-.09-.98-.14-1.93-.14-2.85,0-1.22.08-2.4.25-3.55.28-1.99,1.05-3.98,2.32-5.98.61-1.03,1.65-2.11,3.13-3.23.52-.35,1.09-.67,1.72-.95,1.88-.7,3.76-1.41,5.64-2.11,1.89-.7,3.78-1.41,5.68-2.11.4-.14.77-.21,1.12-.21h.18c1.5.07,3.32.45,5.45,1.12.19.07.3.12.35.14.52.21,1.15.45,1.9.7.3.09.59.14.84.14.37,0,.7-.11.98-.32.49-.42.84-.77,1.05-1.05.12-.16.27-.25.46-.25.12,0,.23.02.35.07.52.19.77.42.77.7v27.21c0,1.52.59,2.49,1.76,2.9,1.17.41,1.76.91,1.76,1.49,0,.49-.25.74-.74.74h-8.54c-.4,0-.6-.15-.6-.46v-2.6ZM261.11,142.6c-.96-.89-2.23-1.72-3.8-2.48-1.57-.76-2.97-1.17-4.18-1.21h-.14c-.47,0-.94.09-1.41.28-.84.3-1.68.62-2.51.93-.83.32-1.67.63-2.51.93-.59.23-1.05.54-1.41.91-1.45,1.55-2.43,3.42-2.92,5.62-.4,1.66-.6,3.32-.6,4.96,0,.52.02,1.04.07,1.58.26,3.38,1.17,6.12,2.74,8.23,1.57,2.18,3.54,3.6,5.91,4.25.89.26,1.79.39,2.71.39.28,0,.57-.01.88-.04.52-.05,1.12-.2,1.83-.46.54-.19,1.38-.5,2.53-.93,1.15-.43,2.09-.79,2.81-1.07v-21.9Z"/><path d="M290.92,135.96c3.45.19,6.7,1.23,9.77,3.13l-.74,6.15c-.05.35-.23.53-.56.53h-.11c-.28-.02-.54-.3-.77-.84-.84-1.76-2.07-3.23-3.69-4.41-1.62-1.18-3.36-1.81-5.24-1.88h-.14c-1.45,0-2.87.36-4.25,1.09-1.45.75-2.34,1.9-2.67,3.45-.12.52-.18.98-.18,1.41,0,1.48.66,2.53,1.97,3.16,1.66.84,3.6,1.51,5.8,2,3.02.68,5.77,1.59,8.24,2.74,2.47,1.15,3.83,3.55,4.06,7.21v.35c0,1.73-.67,3.47-2,5.2-1.45,1.88-3.55,3.29-6.29,4.25-1.71.56-3.61.88-5.7.95h-.95c-2.88,0-5.64-.38-8.26-1.12l-2.85-7.73.11-.7c.02-.35.23-.53.63-.53h.07c.23.05.48.33.74.84,1.08,2.32,2.4,3.97,3.96,4.94,1.56.97,3.53,1.49,5.92,1.56h.42c1.66,0,3.49-.39,5.48-1.16,2.16-.84,3.28-2.37,3.38-4.57v-.21c0-2.53-1.2-4.14-3.59-4.82-2.48-.7-4.66-1.32-6.54-1.86-2.32-.63-4.5-1.64-6.54-3.02-2.02-1.36-3.02-3.38-3.02-6.05v-.18c.02-3.63,1.43-6.22,4.22-7.77,2.55-1.43,5.38-2.14,8.47-2.14.28,0,.56.01.84.04Z"/></g></svg>